<svg version="1.1" id="Layer_1" xmlns="http://www.w3.org/2000/svg" xmlns:xlink="http://www.w3.org/1999/xlink" viewBox="0 0 512.00 512.00" xml:space="preserve" width="42px" height="42px" fill="#000000" stroke="#000000" stroke-width="0.0051200099999999995"><g id="SVGRepo_bgCarrier" stroke-width="0"></g><g id="SVGRepo_tracerCarrier" stroke-linecap="round" stroke-linejoin="round" stroke="#CCCCCC" stroke-width="1.0240019999999999"></g><g id="SVGRepo_iconCarrier"> <path style="fill:#F4D8AA;" d="M449.862,214.248c-17.573,21.967-30.529,40.678-65.728,80.904 c-12.388,14.157-31.763,23.504-54.022,29.678c35.709-16.516,16.024-60.038-20.017-42.44c-21.651,10.571-45.295,9.17-66.846,9.17 s-41.215-19.395-73.54-19.395s-64.651,32.325-64.651,32.325v115.294c100.209,15.085,173.15,7.03,237.052-7.54 c30.709-7.004,91.797-70.972,126.069-133.971c15.311-28.147,32.864-53.518,35.558-62.677 C507.278,203.556,462.792,198.085,449.862,214.248z"></path> <path style="fill:#EFC27B;" d="M449.862,214.248c-17.573,21.967-30.529,40.678-65.728,80.904 c-12.388,14.157-31.763,23.504-54.022,29.678c35.709-16.516,16.024-60.038-20.017-42.44c-17.415,8.503-36.118,9.26-53.985,9.229 v134.239c31.117-2.604,59.35-7.538,86-13.615c30.709-7.004,91.798-70.972,126.069-133.971 c15.311-28.147,32.864-53.518,35.558-62.677C507.278,203.556,462.792,198.085,449.862,214.248z"></path> <path style="fill:#F8E99B;" d="M366.593,81.638c-18.936-18.935-49.637-18.936-68.574,0c-14.927,14.928-18.076,37.161-9.47,55.184 l-62.913,62.913v30.476h30.477v-15.239l15.238,0.001v-15.239h15.238v-15.238h15.239l21.016-21.016 c15.337,3.036,31.86-1.382,43.749-13.271C385.528,131.274,385.527,100.574,366.593,81.638z M332.303,129.394 c-7.424,0-13.466-6.041-13.468-13.466c0.002-7.431,6.045-13.472,13.47-13.472c7.424,0,13.467,6.041,13.469,13.466 C345.772,123.352,339.73,129.394,332.303,129.394z"></path> <path style="fill:#F7E3C6;" d="M450.061,214.248c-17.573,21.967-30.529,40.678-65.728,80.904 c-35.478,40.546-128.224,41.663-182.099,41.663h-96.976v82.968c100.209,15.085,173.15,7.03,237.052-7.54 c30.709-7.004,91.797-70.972,126.069-133.971c15.311-28.147,32.864-53.518,35.558-62.677 C507.479,203.556,462.992,198.085,450.061,214.248z"></path> <rect x="8.283" y="282.934" style="fill:#F8F8F9;" width="96.976" height="161.627"></rect> <path style="fill:#F6E27D;" d="M366.593,81.638c-18.936-18.935-49.637-18.936-68.574,0c-14.927,14.928-18.076,37.161-9.47,55.184 l-32.438,32.44v60.949h0.003v-15.239l15.238,0.001v-15.239h15.238v-15.238h15.239l21.016-21.016 c15.337,3.036,31.86-1.382,43.749-13.271C385.528,131.274,385.527,100.574,366.593,81.638z"></path> <path style="fill:#F4D8AA;" d="M450.061,214.248c-17.573,21.967-30.529,40.678-65.728,80.904 c-25.269,28.878-79.588,37.753-128.224,40.47v90.253c31.195-2.6,59.494-7.543,86.201-13.632 c30.709-7.004,91.797-70.972,126.069-133.971c15.311-28.147,32.864-53.518,35.558-62.677 C507.479,203.556,462.992,198.085,450.061,214.248z"></path> <g> <path style="fill:#2E2D31;" d="M502.608,200.989c-14.572-7.592-46.497-7.491-59.057,8.21c-4.833,6.041-9.271,11.777-13.971,17.849 c-12.229,15.8-26.089,33.708-51.529,62.782c-5.681,6.492-13.091,11.896-21.699,16.402c0.276-1.283,0.488-2.584,0.599-3.908 c0.884-10.563-3.954-20.811-12.628-26.745c-10.243-7.009-24.01-7.171-37.775-0.449c-17.697,8.638-37.405,8.509-56.461,8.379 c-2.299-0.016-4.581-0.03-6.839-0.03c-8.054,0-16.418-3.522-26.102-7.6c-13.129-5.53-28.011-11.796-47.439-11.796 c-21.931,0-43.243,12.865-56.569,22.937v-4.081c0-4.464-3.618-8.081-8.081-8.081H8.081c-4.463,0-8.081,3.617-8.081,8.081v161.627 c0,4.464,3.618,8.081,8.081,8.081h96.976c4.463,0,8.081-3.617,8.081-8.081v-15.457c35.017,4.85,66.491,6.805,94.825,6.805 c56.813,0,101.025-7.831,135.943-15.792c33.642-7.673,96.258-73.443,131.37-137.989c6.601-12.134,13.581-23.676,19.74-33.859 c8.51-14.071,14.658-24.236,16.472-30.4C512.224,215.382,513.751,206.796,502.608,200.989z M96.977,436.485H16.164V291.021h80.813 V436.485z M481.189,239.91c-6.249,10.331-13.331,22.041-20.107,34.5c-35.231,64.765-94.875,124.048-120.766,129.954 c-51.341,11.706-123.337,23.1-227.175,8.419V307.994c7.657-6.928,32.659-27.748,56.569-27.748c16.163,0,28.874,5.353,41.165,10.529 c10.828,4.559,21.056,8.866,32.375,8.866c2.223,0,4.467,0.015,6.731,0.03c19.943,0.127,42.556,0.286,63.662-10.02 c8.392-4.098,16.248-4.365,21.556-0.735c3.944,2.698,6.056,7.206,5.649,12.057c-0.546,6.512-5.571,12.456-13.793,16.357 c-41.837,11.398-94.412,11.402-125.018,11.402c-4.463,0-8.081,3.617-8.081,8.081c0,4.464,3.618,8.081,8.081,8.081 c30.202,0,65.265-0.442,99.192-5.723c42.943-6.684,72.052-19.342,88.99-38.7c25.76-29.439,39.778-47.552,52.147-63.532 c4.658-6.02,9.059-11.705,13.809-17.644c3.187-3.984,11.041-6.662,20.495-6.988c8.739-0.306,15.652,1.496,18.549,3.021 C492.992,220.395,487.236,229.913,481.189,239.91z"></path> <path style="fill:#2E2D31;" d="M330.252,129.394c7.426,0,13.469-6.041,13.471-13.472c-0.002-7.425-6.045-13.466-13.469-13.466 c-7.425,0-13.468,6.041-13.47,13.472C316.786,123.352,322.828,129.394,330.252,129.394z"></path> <path style="fill:#2E2D31;" d="M223.585,238.292h30.477c4.464,0,8.081-3.618,8.081-8.081v-7.157h7.157 c2.143,0,4.198-0.851,5.714-2.366c1.516-1.516,2.367-3.571,2.367-5.715v-7.158h7.157c4.464,0,8.081-3.617,8.081-8.081v-7.157h7.158 c2.143,0,4.198-0.851,5.715-2.366l18.113-18.113c2.208,0.261,4.434,0.39,6.655,0.39c0.002,0,0.002,0,0.003,0 c15.108,0,29.312-5.882,39.994-16.565c22.056-22.057,22.056-57.943-0.001-80c-10.685-10.686-24.892-16.569-40-16.569 c-15.11,0-29.317,5.883-40.002,16.569c-15.533,15.533-20.548,38.614-13.285,58.998l-59.097,59.097 c-1.516,1.516-2.367,3.571-2.367,5.715v30.476C215.503,234.674,219.122,238.292,223.585,238.292z M231.666,203.081l60.545-60.544 c2.421-2.422,3.054-6.107,1.577-9.198c-7.364-15.421-4.193-33.902,7.893-45.986c7.631-7.632,17.779-11.834,28.572-11.834 s20.94,4.202,28.572,11.833c15.754,15.755,15.754,41.389,0.001,57.144c-7.63,7.63-17.775,11.83-28.566,11.83c0,0-0.001,0-0.002,0 c-2.649,0-5.306-0.26-7.897-0.774c-2.649-0.519-5.377,0.307-7.285,2.213l-18.648,18.65h-11.891c-4.464,0-8.081,3.617-8.081,8.081 v7.157h-7.157c-4.464,0-8.081,3.617-8.081,8.081v7.157h-7.156h-0.001c-2.143,0-4.198,0.851-5.714,2.366 c-1.516,1.516-2.367,3.571-2.367,5.715v7.158h-14.314V203.081z"></path> <path style="fill:#2E2D31;" d="M56.569,377.222c7.425,0,13.468-6.041,13.471-13.472c-0.002-7.425-6.045-13.466-13.469-13.466 c-7.425,0-13.468,6.04-13.47,13.472C43.104,371.18,49.145,377.222,56.569,377.222z"></path> </g> </g></svg>