<svg version="1.1" id="Layer_1" xmlns="http://www.w3.org/2000/svg" xmlns:xlink="http://www.w3.org/1999/xlink" viewBox="0 0 512.001 512.001" xml:space="preserve" width="42px" height="42px" fill="#000000"><g id="SVGRepo_bgCarrier" stroke-width="0"></g><g id="SVGRepo_tracerCarrier" stroke-linecap="round" stroke-linejoin="round"></g><g id="SVGRepo_iconCarrier"> <g> <rect x="91.219" y="102.989" style="fill:#F8F8F9;" width="35.31" height="82.391"></rect> <polygon style="fill:#F8F8F9;" points="420.783,503.175 91.219,503.175 91.219,232.461 256.001,55.909 420.783,232.461 "></polygon> </g> <polygon style="fill:#EDEDED;" points="420.783,232.459 256.001,55.907 256.001,503.172 420.783,503.172 "></polygon> <rect x="220.69" y="432.553" style="fill:#BFA993;" width="70.621" height="70.621"></rect> <rect x="256.001" y="432.553" style="fill:#B29A7E;" width="35.31" height="70.621"></rect> <path style="fill:#95D5A7;" d="M144.184,503.172c9.75,0,17.655-7.906,17.655-17.655c0-6.256-3.262-11.738-8.167-14.875 c1.447-2.561,2.282-5.514,2.282-8.665c0-9.75-7.905-17.655-17.655-17.655c-4.529,0-8.645,1.72-11.77,4.523 c-3.125-2.804-7.241-4.523-11.77-4.523c-4.529,0-8.645,1.72-11.77,4.523c-3.125-2.804-7.241-4.523-11.77-4.523 c-9.75,0-17.655,7.905-17.655,17.655c0,3.152,0.836,6.104,2.283,8.665c-4.906,3.137-8.168,8.618-8.168,14.875 c0,9.749,7.905,17.655,17.655,17.655H144.184z"></path> <path style="fill:#80CB93;" d="M426.668,503.172c9.75,0,17.655-7.906,17.655-17.655c0-6.256-3.262-11.738-8.167-14.875 c1.447-2.561,2.282-5.514,2.282-8.665c0-9.75-7.905-17.655-17.655-17.655c-4.529,0-8.645,1.72-11.77,4.523 c-3.125-2.804-7.241-4.523-11.77-4.523c-4.529,0-8.645,1.72-11.77,4.523c-3.125-2.804-7.241-4.523-11.77-4.523 c-9.75,0-17.655,7.905-17.655,17.655c0,3.152,0.836,6.104,2.283,8.665c-4.906,3.137-8.168,8.618-8.168,14.875 c0,9.749,7.905,17.655,17.655,17.655H426.668z"></path> <path style="fill:#88888F;" d="M256.001,512c-4.876,0-8.828-3.951-8.828-8.828v-35.31c0-4.876,3.951-8.828,8.828-8.828 s8.828,3.951,8.828,8.828v35.31C264.828,508.049,260.876,512,256.001,512z"></path> <polygon style="fill:#D38D94;" points="456.093,208.919 256.001,8.826 55.908,208.919 85.334,238.344 256.001,67.677 426.668,238.344 "></polygon> <g> <circle style="fill:#D1E5F5;" cx="256.001" cy="179.495" r="17.655"></circle> <rect x="145.361" y="244.23" style="fill:#D1E5F5;" width="35.31" height="47.081"></rect> </g> <polygon style="fill:#C18089;" points="256.001,8.826 256.001,67.677 426.668,238.344 456.093,208.919 "></polygon> <g> <path style="fill:#B4D8F1;" d="M243.516,191.978c3.194,3.196,7.608,5.172,12.483,5.172c9.75,0,17.655-7.905,17.655-17.655 c0-4.876-1.976-9.29-5.172-12.483L243.516,191.978z"></path> <polygon style="fill:#B4D8F1;" points="145.361,291.31 180.672,291.31 180.672,255.999 "></polygon> </g> <rect x="238.345" y="244.23" style="fill:#D1E5F5;" width="35.31" height="47.081"></rect> <polygon style="fill:#B4D8F1;" points="238.345,291.31 273.656,291.31 273.656,255.999 "></polygon> <rect x="332.507" y="244.23" style="fill:#D1E5F5;" width="35.31" height="47.081"></rect> <polygon style="fill:#B4D8F1;" points="332.507,291.31 367.817,291.31 367.817,255.999 "></polygon> <rect x="145.361" y="338.392" style="fill:#D1E5F5;" width="35.31" height="47.081"></rect> <polygon style="fill:#B4D8F1;" points="145.361,385.471 180.672,385.471 180.672,350.161 "></polygon> <rect x="238.345" y="338.392" style="fill:#D1E5F5;" width="35.31" height="47.081"></rect> <polygon style="fill:#B4D8F1;" points="238.345,385.471 273.656,385.471 273.656,350.161 "></polygon> <rect x="332.507" y="338.392" style="fill:#D1E5F5;" width="35.31" height="47.081"></rect> <polygon style="fill:#B4D8F1;" points="332.507,385.471 367.817,385.471 367.817,350.161 "></polygon> <g> <path style="fill:#2E2D31;" d="M456.093,494.345h-4.461c0.98-2.764,1.518-5.733,1.518-8.828c0-6.545-2.383-12.714-6.592-17.481 c0.467-1.982,0.707-4.016,0.707-6.059c0-11.508-7.38-21.319-17.655-24.964V246.659c1.204-0.425,2.336-1.109,3.3-2.072 l29.425-29.425c3.447-3.447,3.447-9.036,0-12.485L262.243,2.585c-3.449-3.446-9.037-3.446-12.485,0L135.357,116.986v-13.998 c0-4.876-3.951-8.828-8.828-8.828h-35.31c-4.876,0-8.828,3.951-8.828,8.828v66.964l-32.726,32.726 c-3.447,3.45-3.447,9.038,0,12.485l29.425,29.425c0.963,0.962,2.096,1.645,3.3,2.072v190.355 c-10.275,3.645-17.655,13.457-17.655,24.964c0,2.043,0.239,4.078,0.707,6.059c-4.208,4.767-6.592,10.934-6.592,17.481 c0,3.094,0.538,6.064,1.518,8.828h-4.461c-4.876,0-8.828,3.951-8.828,8.828s3.951,8.828,8.828,8.828h400.185 c4.876,0,8.828-3.951,8.828-8.828S460.968,494.345,456.093,494.345z M409.012,438.266c-3.631-1.81-7.652-2.771-11.77-2.771 c-4.118,0-8.139,0.96-11.77,2.771c-3.631-1.81-7.652-2.771-11.77-2.771c-14.602,0-26.483,11.881-26.483,26.483 c0,2.043,0.239,4.078,0.707,6.059c-4.208,4.767-6.592,10.934-6.592,17.481c0,3.094,0.538,6.064,1.518,8.828h-42.714v-61.793 c0-4.876-3.951-8.828-8.828-8.828H220.69c-4.876,0-8.828,3.951-8.828,8.828v61.793h-42.714c0.98-2.764,1.518-5.733,1.518-8.828 c0-6.545-2.383-12.714-6.592-17.481c0.467-1.982,0.707-4.016,0.707-6.059c0-14.602-11.881-26.483-26.483-26.483 c-4.118,0-8.139,0.96-11.77,2.771c-3.631-1.81-7.652-2.771-11.77-2.771c-4.118,0-8.139,0.96-11.77,2.771 c-0.956-0.477-1.94-0.89-2.943-1.248V236.117L256.001,80.162l155.954,155.956v200.902 C410.951,437.376,409.967,437.789,409.012,438.266z M100.046,111.815h17.655v22.826l-17.655,17.655V111.815z M68.392,208.919 L256.001,21.311L443.61,208.92l-16.942,16.941L262.242,61.435c-1.724-1.723-3.984-2.585-6.243-2.585 c-2.259,0-4.519,0.862-6.243,2.585L85.334,225.861L68.392,208.919z M85.334,494.345c-4.868,0-8.828-3.96-8.828-8.828 c0-3.018,1.531-5.798,4.095-7.438c3.95-2.526,5.237-7.698,2.93-11.78c-0.757-1.341-1.141-2.794-1.141-4.323 c0-4.868,3.959-8.828,8.828-8.828c2.768,0,4.723,1.232,5.876,2.267c3.354,3.01,8.434,3.01,11.789,0 c1.152-1.035,3.108-2.267,5.876-2.267s4.723,1.232,5.876,2.267c3.354,3.01,8.434,3.01,11.789,0 c1.152-1.035,3.108-2.267,5.876-2.267c4.868,0,8.828,3.959,8.828,8.828c0,1.529-0.384,2.983-1.141,4.323 c-2.307,4.082-1.02,9.254,2.93,11.78c2.565,1.64,4.095,4.421,4.095,7.438c0,4.868-3.959,8.828-8.828,8.828H85.334z M229.518,494.345v-52.966h52.966v52.966H229.518z M367.817,494.345c-4.868,0-8.828-3.96-8.828-8.828 c0-3.018,1.531-5.798,4.096-7.438c3.95-2.526,5.237-7.698,2.93-11.78c-0.757-1.341-1.141-2.794-1.141-4.323 c0-4.868,3.959-8.828,8.828-8.828c2.768,0,4.723,1.232,5.876,2.267c3.354,3.01,8.434,3.01,11.789,0 c1.152-1.035,3.108-2.267,5.876-2.267c2.768,0,4.723,1.232,5.876,2.267c3.354,3.01,8.434,3.01,11.789,0 c1.152-1.035,3.108-2.267,5.876-2.267c4.868,0,8.828,3.959,8.828,8.828c0,1.529-0.384,2.983-1.141,4.323 c-2.307,4.082-1.02,9.254,2.93,11.78c2.565,1.64,4.095,4.421,4.095,7.438c0,4.868-3.96,8.828-8.828,8.828H367.817z"></path> <path style="fill:#2E2D31;" d="M255.412,205.976c14.602,0,26.483-11.881,26.483-26.483s-11.881-26.483-26.483-26.483 s-26.483,11.881-26.483,26.483C228.929,194.097,240.81,205.976,255.412,205.976z M255.412,170.666c4.868,0,8.828,3.959,8.828,8.828 s-3.959,8.828-8.828,8.828s-8.828-3.959-8.828-8.828C246.584,174.627,250.544,170.666,255.412,170.666z"></path> <path style="fill:#2E2D31;" d="M284.837,376.643h-2.943V338.39c0-4.876-3.951-8.828-8.828-8.828h-35.31 c-4.876,0-8.828,3.951-8.828,8.828v38.253h-2.943c-4.876,0-8.828,3.951-8.828,8.828s3.951,8.828,8.828,8.828h58.851 c4.876,0,8.828-3.951,8.828-8.828S289.713,376.643,284.837,376.643z M246.584,376.643v-29.425h17.655v29.425H246.584z"></path> <path style="fill:#2E2D31;" d="M378.999,376.643h-2.943V338.39c0-4.876-3.951-8.828-8.828-8.828h-35.31 c-4.876,0-8.828,3.951-8.828,8.828v38.253h-2.943c-4.876,0-8.828,3.951-8.828,8.828s3.951,8.828,8.828,8.828h58.851 c4.876,0,8.828-3.951,8.828-8.828S383.874,376.643,378.999,376.643z M340.746,376.643v-29.425h17.655v29.425H340.746z"></path> <path style="fill:#2E2D31;" d="M191.853,376.643h-2.943V338.39c0-4.876-3.951-8.828-8.828-8.828h-35.31 c-4.876,0-8.828,3.951-8.828,8.828v38.253h-2.943c-4.876,0-8.828,3.951-8.828,8.828s3.951,8.828,8.828,8.828h58.851 c4.876,0,8.828-3.951,8.828-8.828S196.729,376.643,191.853,376.643z M153.6,376.643v-29.425h17.655v29.425H153.6z"></path> <path style="fill:#2E2D31;" d="M284.837,282.482h-2.943v-38.253c0-4.876-3.951-8.828-8.828-8.828h-35.31 c-4.876,0-8.828,3.951-8.828,8.828v38.253h-2.943c-4.876,0-8.828,3.951-8.828,8.828s3.951,8.828,8.828,8.828h58.851 c4.876,0,8.828-3.951,8.828-8.828C293.665,286.435,289.713,282.482,284.837,282.482z M246.584,282.482v-29.425h17.655v29.425 H246.584z"></path> <path style="fill:#2E2D31;" d="M378.999,282.482h-2.943v-38.253c0-4.876-3.951-8.828-8.828-8.828h-35.31 c-4.876,0-8.828,3.951-8.828,8.828v38.253h-2.943c-4.876,0-8.828,3.951-8.828,8.828s3.951,8.828,8.828,8.828h58.851 c4.876,0,8.828-3.951,8.828-8.828C387.826,286.435,383.874,282.482,378.999,282.482z M340.746,282.482v-29.425h17.655v29.425 H340.746z"></path> <path style="fill:#2E2D31;" d="M191.853,282.482h-2.943v-38.253c0-4.876-3.951-8.828-8.828-8.828h-35.31 c-4.876,0-8.828,3.951-8.828,8.828v38.253h-2.943c-4.876,0-8.828,3.951-8.828,8.828s3.951,8.828,8.828,8.828h58.851 c4.876,0,8.828-3.951,8.828-8.828C200.681,286.435,196.729,282.482,191.853,282.482z M153.6,282.482v-29.425h17.655v29.425H153.6z"></path> </g> </g></svg>