<svg xmlns="http://www.w3.org/2000/svg" viewBox="0 0 31.67 42.38"><defs><style>.cls-1{fill:#e2831a;}.cls-2{fill:#002554;}.cls-3{fill:#00b4dc;}</style></defs><title>iso-color</title><g id="Capa_2" data-name="Capa 2"><g id="Capa_1-2" data-name="Capa 1"><rect class="cls-1" x="0.07" width="2.01" height="8.48"/><rect class="cls-1" y="33.9" width="2.06" height="8.48"/><polygon class="cls-1" points="10.55 15.92 10.6 8.48 8.54 8.48 8.54 16.95 8.54 16.95 8.54 16.95 8.54 16.95 8.54 16.95 12.79 21.13 8.56 25.41 8.54 25.41 8.54 27.63 8.54 27.63 8.54 33.9 10.57 33.9 10.57 26.25 15.64 21.07 10.55 15.92"/><rect class="cls-2" x="6.24" width="8.48" height="8.48"/><rect class="cls-2" x="6.24" y="33.9" width="8.48" height="8.48"/><polygon class="cls-2" points="23.19 16.95 23.19 8.48 14.72 8.48 14.72 16.95 14.72 16.95 14.72 16.95 14.72 16.95 14.72 16.95 23.19 16.95 23.19 25.43 14.73 25.41 14.72 25.41 14.72 27.63 14.72 27.63 14.72 33.9 23.19 33.9 23.19 25.43 23.19 25.43 24.23 25.43 31.67 25.43 31.67 16.95 23.19 16.95"/><rect class="cls-3" x="2.06" width="4.18" height="8.48"/><rect class="cls-3" x="2.06" y="33.9" width="4.18" height="8.48"/><polygon class="cls-3" points="14.7 16.95 14.7 8.48 10.54 8.48 10.53 15.92 15.62 21.07 10.55 26.25 10.54 27.63 10.54 27.63 10.54 33.9 14.72 33.9 14.72 25.43 23.17 25.43 23.2 16.95 14.7 16.95"/></g></g></svg>