<?xml version="1.0" encoding="UTF-8"?>
<svg xmlns="http://www.w3.org/2000/svg" xmlns:xlink="http://www.w3.org/1999/xlink" width="32px" height="32px" viewBox="0 0 32 32" version="1.1">
<g id="surface1">
<path style=" stroke:none;fill-rule:nonzero;fill:rgb(0%,47.058824%,43.921569%);fill-opacity:1;" d="M 32.035156 16.019531 C 32.035156 24.867188 24.867188 32.035156 16.019531 32.035156 C 7.175781 32.035156 0.00390625 24.867188 0.00390625 16.019531 C 0.00390625 7.175781 7.175781 0.00390625 16.019531 0.00390625 C 24.867188 0.00390625 32.035156 7.175781 32.035156 16.019531 "/>
<path style=" stroke:none;fill-rule:nonzero;fill:rgb(92.54902%,92.54902%,92.54902%);fill-opacity:1;" d="M 27.347656 16.125 C 27.308594 22.535156 22.078125 27.699219 15.667969 27.660156 C 9.257812 27.621094 4.09375 22.390625 4.132812 15.980469 C 4.175781 9.570312 9.402344 4.40625 15.816406 4.445312 C 22.226562 4.484375 27.390625 9.714844 27.347656 16.125 "/>
<path style=" stroke:none;fill-rule:nonzero;fill:rgb(100%,100%,100%);fill-opacity:1;" d="M 1.921875 16.269531 L 2.320312 16.289062 L 2.335938 15.957031 L 2.503906 15.964844 L 2.480469 16.496094 L 1.835938 16.464844 C 1.785156 16.386719 1.746094 16.296875 1.722656 16.203125 C 1.699219 16.105469 1.691406 16.007812 1.695312 15.898438 C 1.707031 15.667969 1.78125 15.488281 1.925781 15.359375 C 2.066406 15.234375 2.261719 15.179688 2.503906 15.191406 C 2.75 15.203125 2.933594 15.277344 3.066406 15.414062 C 3.195312 15.550781 3.253906 15.738281 3.246094 15.972656 C 3.242188 16.070312 3.222656 16.160156 3.195312 16.246094 C 3.167969 16.332031 3.128906 16.414062 3.078125 16.484375 L 2.863281 16.476562 C 2.929688 16.402344 2.980469 16.324219 3.019531 16.242188 C 3.054688 16.160156 3.074219 16.074219 3.078125 15.980469 C 3.085938 15.796875 3.042969 15.65625 2.945312 15.5625 C 2.847656 15.464844 2.695312 15.414062 2.496094 15.402344 C 2.292969 15.394531 2.140625 15.433594 2.03125 15.519531 C 1.925781 15.605469 1.867188 15.742188 1.859375 15.925781 C 1.855469 15.996094 1.859375 16.058594 1.871094 16.117188 C 1.878906 16.171875 1.898438 16.222656 1.921875 16.269531 Z M 1.921875 16.269531 "/>
<path style=" stroke:none;fill-rule:nonzero;fill:rgb(100%,100%,100%);fill-opacity:1;" d="M 3.21875 16.636719 L 3.261719 17.582031 L 3.089844 17.589844 L 3.058594 16.847656 L 2.617188 16.867188 L 2.648438 17.578125 L 2.476562 17.585938 L 2.445312 16.875 L 1.90625 16.898438 L 1.9375 17.65625 L 1.769531 17.664062 L 1.726562 16.703125 Z M 3.21875 16.636719 "/>
<path style=" stroke:none;fill-rule:nonzero;fill:rgb(100%,100%,100%);fill-opacity:1;" d="M 3.332031 18.519531 L 3.132812 18.542969 C 3.160156 18.460938 3.179688 18.386719 3.1875 18.316406 C 3.199219 18.246094 3.199219 18.179688 3.191406 18.117188 C 3.179688 18.007812 3.148438 17.925781 3.097656 17.871094 C 3.046875 17.816406 2.984375 17.796875 2.90625 17.804688 C 2.839844 17.8125 2.792969 17.839844 2.761719 17.882812 C 2.734375 17.925781 2.71875 18.003906 2.710938 18.117188 L 2.699219 18.242188 C 2.691406 18.394531 2.652344 18.511719 2.589844 18.589844 C 2.527344 18.671875 2.4375 18.71875 2.316406 18.734375 C 2.171875 18.75 2.058594 18.71875 1.96875 18.628906 C 1.882812 18.542969 1.828125 18.40625 1.808594 18.21875 C 1.796875 18.148438 1.796875 18.074219 1.804688 17.992188 C 1.808594 17.910156 1.824219 17.828125 1.84375 17.738281 L 2.050781 17.710938 C 2.015625 17.800781 1.988281 17.882812 1.976562 17.964844 C 1.960938 18.046875 1.960938 18.125 1.96875 18.199219 C 1.984375 18.3125 2.015625 18.398438 2.070312 18.457031 C 2.121094 18.511719 2.191406 18.535156 2.273438 18.527344 C 2.347656 18.515625 2.402344 18.488281 2.4375 18.4375 C 2.472656 18.386719 2.496094 18.3125 2.503906 18.207031 L 2.511719 18.082031 C 2.523438 17.925781 2.554688 17.8125 2.609375 17.738281 C 2.667969 17.664062 2.75 17.621094 2.863281 17.605469 C 2.996094 17.589844 3.105469 17.621094 3.191406 17.707031 C 3.277344 17.789062 3.332031 17.910156 3.351562 18.074219 C 3.359375 18.144531 3.363281 18.214844 3.359375 18.289062 C 3.355469 18.363281 3.347656 18.4375 3.332031 18.519531 Z M 3.332031 18.519531 "/>
<path style=" stroke:none;fill-rule:nonzero;fill:rgb(100%,100%,100%);fill-opacity:1;" d="M 3.371094 18.398438 L 3.625 19.636719 L 3.457031 19.671875 L 3.351562 19.152344 L 2.054688 19.417969 L 2.011719 19.21875 L 3.308594 18.953125 L 3.203125 18.433594 Z M 3.371094 18.398438 "/>
<path style=" stroke:none;fill-rule:nonzero;fill:rgb(100%,100%,100%);fill-opacity:1;" d="M 3.644531 19.605469 L 3.695312 19.800781 L 2.25 20.1875 L 2.199219 19.988281 Z M 3.644531 19.605469 "/>
<path style=" stroke:none;fill-rule:nonzero;fill:rgb(100%,100%,100%);fill-opacity:1;" d="M 3.824219 20.683594 C 3.777344 20.542969 3.6875 20.453125 3.554688 20.40625 C 3.421875 20.359375 3.265625 20.367188 3.089844 20.429688 C 2.910156 20.492188 2.785156 20.582031 2.710938 20.699219 C 2.632812 20.816406 2.621094 20.945312 2.667969 21.082031 C 2.71875 21.222656 2.808594 21.3125 2.9375 21.359375 C 3.070312 21.40625 3.226562 21.398438 3.402344 21.335938 C 3.582031 21.273438 3.707031 21.183594 3.785156 21.066406 C 3.859375 20.949219 3.871094 20.820312 3.824219 20.683594 Z M 3.980469 20.628906 C 4.046875 20.828125 4.035156 21.007812 3.945312 21.171875 C 3.855469 21.335938 3.695312 21.457031 3.472656 21.535156 C 3.25 21.613281 3.050781 21.617188 2.878906 21.542969 C 2.703125 21.472656 2.582031 21.335938 2.515625 21.136719 C 2.445312 20.9375 2.457031 20.757812 2.546875 20.59375 C 2.636719 20.425781 2.796875 20.304688 3.019531 20.230469 C 3.242188 20.152344 3.441406 20.148438 3.613281 20.222656 C 3.789062 20.292969 3.910156 20.429688 3.980469 20.628906 Z M 4.355469 20.554688 L 4.417969 20.730469 L 4.09375 20.601562 L 4.042969 20.457031 Z M 4.355469 20.554688 "/>
<path style=" stroke:none;fill-rule:nonzero;fill:rgb(100%,100%,100%);fill-opacity:1;" d="M 4.222656 21.351562 L 4.339844 21.597656 L 3.488281 22.726562 L 4.621094 22.195312 L 4.703125 22.375 L 3.351562 23.011719 L 3.234375 22.761719 L 4.085938 21.632812 L 2.953125 22.164062 L 2.871094 21.984375 Z M 4.222656 21.351562 "/>
<path style=" stroke:none;fill-rule:nonzero;fill:rgb(100%,100%,100%);fill-opacity:1;" d="M 5.0625 22.960938 L 5.167969 23.136719 L 3.886719 23.910156 L 3.785156 23.738281 Z M 5.0625 22.960938 "/>
<path style=" stroke:none;fill-rule:nonzero;fill:rgb(100%,100%,100%);fill-opacity:1;" d="M 5.296875 23.375 L 5.453125 23.597656 L 4.816406 24.863281 L 5.835938 24.140625 L 5.953125 24.300781 L 4.730469 25.164062 L 4.574219 24.941406 L 5.210938 23.675781 L 4.191406 24.402344 L 4.078125 24.242188 Z M 5.296875 23.375 "/>
<path style=" stroke:none;fill-rule:nonzero;fill:rgb(100%,100%,100%);fill-opacity:1;" d="M 5.960938 24.285156 L 6.785156 25.246094 L 6.65625 25.355469 L 6.308594 24.953125 L 5.300781 25.8125 L 5.171875 25.660156 L 6.175781 24.796875 L 5.832031 24.394531 Z M 5.960938 24.285156 "/>
<path style=" stroke:none;fill-rule:nonzero;fill:rgb(100%,100%,100%);fill-opacity:1;" d="M 6.75 25.195312 L 7.417969 25.863281 L 7.300781 25.984375 L 6.773438 25.457031 L 6.460938 25.769531 L 6.964844 26.273438 L 6.84375 26.394531 L 6.339844 25.890625 L 5.957031 26.273438 L 6.496094 26.8125 L 6.375 26.933594 L 5.695312 26.25 Z M 6.75 25.195312 "/>
<path style=" stroke:none;fill-rule:nonzero;fill:rgb(100%,100%,100%);fill-opacity:1;" d="M 7.417969 27.535156 L 7.675781 27.226562 L 7.421875 27.015625 L 7.527344 26.886719 L 7.9375 27.226562 L 7.523438 27.71875 C 7.429688 27.714844 7.335938 27.691406 7.246094 27.652344 C 7.15625 27.613281 7.070312 27.558594 6.988281 27.492188 C 6.808594 27.339844 6.710938 27.171875 6.695312 26.980469 C 6.683594 26.792969 6.753906 26.605469 6.910156 26.417969 C 7.066406 26.230469 7.238281 26.125 7.429688 26.105469 C 7.617188 26.085938 7.800781 26.148438 7.980469 26.300781 C 8.054688 26.363281 8.117188 26.429688 8.171875 26.503906 C 8.222656 26.582031 8.261719 26.660156 8.289062 26.742188 L 8.152344 26.90625 C 8.136719 26.8125 8.105469 26.722656 8.058594 26.644531 C 8.015625 26.566406 7.957031 26.496094 7.886719 26.4375 C 7.746094 26.320312 7.609375 26.273438 7.472656 26.292969 C 7.335938 26.3125 7.203125 26.398438 7.074219 26.554688 C 6.945312 26.710938 6.882812 26.855469 6.886719 26.992188 C 6.894531 27.128906 6.964844 27.257812 7.105469 27.375 C 7.160156 27.421875 7.214844 27.457031 7.265625 27.484375 C 7.316406 27.507812 7.367188 27.527344 7.417969 27.535156 Z M 7.417969 27.535156 "/>
<path style=" stroke:none;fill-rule:nonzero;fill:rgb(100%,100%,100%);fill-opacity:1;" d="M 8.613281 27.765625 C 8.640625 27.800781 8.65625 27.851562 8.664062 27.914062 C 8.671875 27.976562 8.667969 28.054688 8.652344 28.148438 L 8.59375 28.601562 L 8.414062 28.476562 L 8.472656 28.054688 C 8.488281 27.941406 8.484375 27.859375 8.464844 27.808594 C 8.445312 27.753906 8.402344 27.703125 8.335938 27.660156 L 8.15625 27.535156 L 7.796875 28.054688 L 7.632812 27.941406 L 8.476562 26.707031 L 8.855469 26.964844 C 8.996094 27.0625 9.082031 27.164062 9.109375 27.273438 C 9.136719 27.378906 9.113281 27.492188 9.03125 27.609375 C 8.976562 27.6875 8.914062 27.738281 8.84375 27.765625 C 8.773438 27.792969 8.695312 27.792969 8.613281 27.765625 Z M 8.550781 26.960938 L 8.25 27.398438 L 8.460938 27.542969 C 8.539062 27.597656 8.613281 27.621094 8.679688 27.609375 C 8.746094 27.601562 8.804688 27.5625 8.855469 27.488281 C 8.902344 27.417969 8.921875 27.347656 8.902344 27.285156 C 8.886719 27.21875 8.839844 27.160156 8.761719 27.105469 Z M 8.550781 26.960938 "/>
<path style=" stroke:none;fill-rule:nonzero;fill:rgb(100%,100%,100%);fill-opacity:1;" d="M 9.734375 27.746094 L 9.132812 28.261719 L 9.613281 28.53125 Z M 9.734375 27.515625 L 9.933594 27.628906 L 9.703125 29.210938 L 9.519531 29.109375 L 9.585938 28.707031 L 9 28.378906 L 8.691406 28.648438 L 8.507812 28.546875 Z M 9.734375 27.515625 "/>
<path style=" stroke:none;fill-rule:nonzero;fill:rgb(100%,100%,100%);fill-opacity:1;" d="M 10.472656 27.902344 L 10.65625 27.988281 L 10.113281 29.195312 L 10.777344 29.492188 L 10.707031 29.648438 L 9.859375 29.265625 Z M 10.472656 27.902344 "/>
<path style=" stroke:none;fill-rule:nonzero;fill:rgb(100%,100%,100%);fill-opacity:1;" d="M 11.921875 28.65625 L 11.582031 29.765625 L 11.8125 29.839844 C 12.011719 29.898438 12.167969 29.898438 12.289062 29.839844 C 12.40625 29.777344 12.496094 29.652344 12.554688 29.457031 C 12.617188 29.265625 12.613281 29.113281 12.546875 28.996094 C 12.484375 28.878906 12.355469 28.789062 12.15625 28.726562 Z M 11.777344 28.4375 L 12.175781 28.558594 C 12.453125 28.644531 12.636719 28.765625 12.730469 28.921875 C 12.828125 29.074219 12.835938 29.277344 12.761719 29.519531 C 12.683594 29.765625 12.5625 29.929688 12.398438 30.003906 C 12.230469 30.078125 12.011719 30.074219 11.734375 29.988281 L 11.339844 29.867188 Z M 11.777344 28.4375 "/>
<path style=" stroke:none;fill-rule:nonzero;fill:rgb(100%,100%,100%);fill-opacity:1;" d="M 13.074219 28.820312 L 14 29.019531 L 13.964844 29.183594 L 13.234375 29.03125 L 13.144531 29.464844 L 13.839844 29.613281 L 13.804688 29.777344 L 13.109375 29.628906 L 12.996094 30.160156 L 13.742188 30.316406 L 13.707031 30.484375 L 12.761719 30.285156 Z M 13.074219 28.820312 "/>
<path style=" stroke:none;fill-rule:nonzero;fill:rgb(100%,100%,100%);fill-opacity:1;" d="M 15.125 29.921875 C 15.167969 29.941406 15.207031 29.976562 15.242188 30.027344 C 15.277344 30.082031 15.3125 30.148438 15.347656 30.238281 L 15.515625 30.664062 L 15.296875 30.644531 L 15.140625 30.242188 C 15.101562 30.140625 15.058594 30.070312 15.015625 30.03125 C 14.972656 29.996094 14.914062 29.972656 14.832031 29.964844 L 14.613281 29.945312 L 14.554688 30.574219 L 14.355469 30.554688 L 14.492188 29.066406 L 14.945312 29.109375 C 15.117188 29.125 15.242188 29.171875 15.316406 29.25 C 15.394531 29.328125 15.425781 29.441406 15.414062 29.585938 C 15.40625 29.679688 15.375 29.753906 15.324219 29.8125 C 15.277344 29.871094 15.210938 29.90625 15.125 29.921875 Z M 14.679688 29.25 L 14.628906 29.78125 L 14.882812 29.804688 C 14.980469 29.8125 15.054688 29.796875 15.109375 29.757812 C 15.160156 29.714844 15.191406 29.652344 15.199219 29.566406 C 15.210938 29.476562 15.191406 29.410156 15.144531 29.363281 C 15.097656 29.3125 15.027344 29.285156 14.929688 29.273438 Z M 14.679688 29.25 "/>
<path style=" stroke:none;fill-rule:nonzero;fill:rgb(100%,100%,100%);fill-opacity:1;" d="M 15.582031 29.144531 L 16.527344 29.15625 L 16.527344 29.324219 L 15.785156 29.320312 L 15.777344 29.761719 L 16.492188 29.769531 L 16.488281 29.9375 L 15.777344 29.933594 L 15.773438 30.472656 L 16.53125 30.480469 L 16.53125 30.652344 L 15.566406 30.640625 Z M 15.582031 29.144531 "/>
<path style=" stroke:none;fill-rule:nonzero;fill:rgb(100%,100%,100%);fill-opacity:1;" d="M 17.464844 29.128906 L 17.476562 29.324219 C 17.398438 29.292969 17.324219 29.269531 17.257812 29.257812 C 17.1875 29.246094 17.121094 29.238281 17.058594 29.246094 C 16.949219 29.25 16.863281 29.277344 16.808594 29.324219 C 16.75 29.371094 16.726562 29.433594 16.730469 29.511719 C 16.734375 29.578125 16.757812 29.628906 16.800781 29.660156 C 16.839844 29.691406 16.917969 29.710938 17.03125 29.726562 L 17.15625 29.742188 C 17.308594 29.761719 17.421875 29.804688 17.496094 29.871094 C 17.574219 29.9375 17.617188 30.03125 17.625 30.152344 C 17.636719 30.296875 17.59375 30.410156 17.5 30.492188 C 17.410156 30.574219 17.269531 30.621094 17.082031 30.632812 C 17.011719 30.636719 16.9375 30.636719 16.855469 30.625 C 16.777344 30.613281 16.691406 30.597656 16.605469 30.570312 L 16.589844 30.363281 C 16.675781 30.402344 16.757812 30.433594 16.839844 30.449219 C 16.917969 30.46875 16.996094 30.472656 17.074219 30.46875 C 17.1875 30.460938 17.273438 30.433594 17.335938 30.382812 C 17.394531 30.332031 17.421875 30.265625 17.414062 30.183594 C 17.410156 30.109375 17.382812 30.054688 17.335938 30.015625 C 17.289062 29.976562 17.210938 29.953125 17.109375 29.9375 L 16.984375 29.921875 C 16.832031 29.902344 16.71875 29.863281 16.648438 29.804688 C 16.574219 29.742188 16.535156 29.65625 16.527344 29.542969 C 16.519531 29.410156 16.558594 29.304688 16.644531 29.222656 C 16.734375 29.140625 16.859375 29.09375 17.023438 29.082031 C 17.09375 29.078125 17.164062 29.078125 17.238281 29.085938 C 17.3125 29.09375 17.386719 29.109375 17.464844 29.128906 Z M 17.464844 29.128906 "/>
<path style=" stroke:none;fill-rule:nonzero;fill:rgb(100%,100%,100%);fill-opacity:1;" d="M 17.585938 29.066406 L 17.785156 29.039062 L 17.976562 30.523438 L 17.773438 30.546875 Z M 17.585938 29.066406 "/>
<path style=" stroke:none;fill-rule:nonzero;fill:rgb(100%,100%,100%);fill-opacity:1;" d="M 18.292969 29.121094 L 18.527344 30.257812 L 18.765625 30.210938 C 18.96875 30.171875 19.105469 30.09375 19.179688 29.984375 C 19.257812 29.871094 19.273438 29.71875 19.234375 29.519531 C 19.195312 29.324219 19.117188 29.191406 19.003906 29.117188 C 18.894531 29.046875 18.734375 29.03125 18.535156 29.070312 Z M 18.0625 28.996094 L 18.46875 28.914062 C 18.753906 28.855469 18.976562 28.875 19.132812 28.964844 C 19.289062 29.054688 19.390625 29.226562 19.441406 29.476562 C 19.496094 29.730469 19.464844 29.929688 19.355469 30.074219 C 19.246094 30.222656 19.050781 30.324219 18.769531 30.378906 L 18.359375 30.464844 Z M 18.0625 28.996094 "/>
<path style=" stroke:none;fill-rule:nonzero;fill:rgb(100%,100%,100%);fill-opacity:1;" d="M 19.339844 28.722656 L 19.535156 28.664062 L 19.804688 29.53125 C 19.851562 29.683594 19.914062 29.785156 19.992188 29.835938 C 20.070312 29.882812 20.167969 29.890625 20.292969 29.851562 C 20.417969 29.8125 20.496094 29.75 20.53125 29.667969 C 20.566406 29.582031 20.558594 29.464844 20.511719 29.308594 L 20.238281 28.441406 L 20.433594 28.382812 L 20.710938 29.273438 C 20.769531 29.460938 20.769531 29.613281 20.703125 29.738281 C 20.644531 29.863281 20.523438 29.953125 20.34375 30.007812 C 20.160156 30.0625 20.011719 30.058594 19.886719 29.992188 C 19.765625 29.925781 19.675781 29.800781 19.617188 29.613281 Z M 19.339844 28.722656 "/>
<path style=" stroke:none;fill-rule:nonzero;fill:rgb(100%,100%,100%);fill-opacity:1;" d="M 21.226562 28.183594 C 21.09375 28.242188 21.007812 28.339844 20.96875 28.472656 C 20.933594 28.609375 20.953125 28.761719 21.027344 28.9375 C 21.101562 29.109375 21.203125 29.230469 21.324219 29.296875 C 21.449219 29.363281 21.578125 29.367188 21.710938 29.308594 C 21.847656 29.25 21.929688 29.152344 21.964844 29.019531 C 22.003906 28.882812 21.984375 28.730469 21.90625 28.558594 C 21.832031 28.382812 21.734375 28.261719 21.613281 28.195312 C 21.488281 28.128906 21.363281 28.125 21.226562 28.183594 Z M 21.160156 28.035156 C 21.355469 27.949219 21.535156 27.949219 21.707031 28.027344 C 21.878906 28.105469 22.011719 28.253906 22.105469 28.472656 C 22.195312 28.6875 22.214844 28.886719 22.15625 29.066406 C 22.09375 29.246094 21.96875 29.375 21.777344 29.457031 C 21.582031 29.542969 21.402344 29.542969 21.230469 29.464844 C 21.058594 29.386719 20.925781 29.238281 20.832031 29.019531 C 20.738281 28.804688 20.722656 28.605469 20.78125 28.425781 C 20.84375 28.25 20.96875 28.117188 21.160156 28.035156 Z M 21.160156 28.035156 "/>
<path style=" stroke:none;fill-rule:nonzero;fill:rgb(100%,100%,100%);fill-opacity:1;" d="M 22.6875 27.351562 L 22.78125 27.527344 C 22.695312 27.53125 22.621094 27.539062 22.550781 27.558594 C 22.484375 27.574219 22.421875 27.597656 22.367188 27.628906 C 22.269531 27.679688 22.203125 27.742188 22.171875 27.808594 C 22.140625 27.875 22.144531 27.941406 22.179688 28.011719 C 22.214844 28.066406 22.253906 28.101562 22.304688 28.113281 C 22.355469 28.125 22.4375 28.109375 22.542969 28.078125 L 22.664062 28.039062 C 22.808594 27.992188 22.929688 27.984375 23.027344 28.011719 C 23.125 28.042969 23.203125 28.109375 23.261719 28.214844 C 23.332031 28.34375 23.339844 28.464844 23.292969 28.574219 C 23.242188 28.6875 23.136719 28.789062 22.972656 28.878906 C 22.910156 28.914062 22.839844 28.941406 22.761719 28.964844 C 22.683594 28.988281 22.601562 29.007812 22.507812 29.023438 L 22.410156 28.839844 C 22.503906 28.839844 22.589844 28.832031 22.671875 28.816406 C 22.75 28.796875 22.824219 28.769531 22.890625 28.734375 C 22.992188 28.679688 23.0625 28.617188 23.09375 28.546875 C 23.128906 28.476562 23.125 28.40625 23.082031 28.332031 C 23.046875 28.265625 23 28.226562 22.941406 28.210938 C 22.882812 28.199219 22.800781 28.207031 22.703125 28.238281 L 22.582031 28.273438 C 22.4375 28.320312 22.316406 28.332031 22.226562 28.308594 C 22.136719 28.285156 22.066406 28.222656 22.011719 28.121094 C 21.949219 28.003906 21.9375 27.890625 21.984375 27.78125 C 22.027344 27.667969 22.125 27.574219 22.265625 27.496094 C 22.328125 27.460938 22.394531 27.433594 22.464844 27.410156 C 22.535156 27.386719 22.609375 27.367188 22.6875 27.351562 Z M 22.6875 27.351562 "/>
<path style=" stroke:none;fill-rule:nonzero;fill:rgb(100%,100%,100%);fill-opacity:1;" d="M 23.363281 27.019531 L 24.042969 27.964844 L 24.242188 27.820312 C 24.410156 27.699219 24.503906 27.574219 24.527344 27.441406 C 24.550781 27.308594 24.503906 27.160156 24.386719 27 C 24.269531 26.835938 24.144531 26.746094 24.011719 26.726562 C 23.878906 26.707031 23.730469 26.757812 23.5625 26.878906 Z M 23.101562 27.003906 L 23.4375 26.761719 C 23.675781 26.589844 23.882812 26.515625 24.0625 26.535156 C 24.242188 26.554688 24.40625 26.664062 24.558594 26.875 C 24.710938 27.082031 24.765625 27.277344 24.726562 27.453125 C 24.683594 27.632812 24.546875 27.804688 24.316406 27.972656 L 23.976562 28.21875 Z M 23.101562 27.003906 "/>
<path style=" stroke:none;fill-rule:nonzero;fill:rgb(100%,100%,100%);fill-opacity:1;" d="M 24.207031 26.199219 L 24.917969 25.578125 L 25.03125 25.707031 L 24.46875 26.195312 L 24.761719 26.53125 L 25.296875 26.0625 L 25.410156 26.191406 L 24.875 26.65625 L 25.230469 27.066406 L 25.804688 26.566406 L 25.914062 26.695312 L 25.1875 27.328125 Z M 24.207031 26.199219 "/>
<path style=" stroke:none;fill-rule:nonzero;fill:rgb(100%,100%,100%);fill-opacity:1;" d="M 25.578125 24.910156 L 25.71875 25.046875 C 25.636719 25.078125 25.566406 25.109375 25.507812 25.144531 C 25.445312 25.179688 25.394531 25.222656 25.351562 25.265625 C 25.273438 25.34375 25.230469 25.421875 25.21875 25.492188 C 25.207031 25.566406 25.230469 25.628906 25.285156 25.683594 C 25.332031 25.730469 25.382812 25.753906 25.433594 25.75 C 25.484375 25.742188 25.558594 25.707031 25.648438 25.644531 L 25.753906 25.574219 C 25.878906 25.484375 25.992188 25.441406 26.09375 25.441406 C 26.199219 25.441406 26.292969 25.484375 26.378906 25.570312 C 26.480469 25.667969 26.527344 25.78125 26.511719 25.902344 C 26.496094 26.023438 26.425781 26.152344 26.292969 26.285156 C 26.242188 26.335938 26.183594 26.386719 26.117188 26.429688 C 26.050781 26.476562 25.976562 26.519531 25.894531 26.558594 L 25.746094 26.414062 C 25.835938 26.386719 25.914062 26.351562 25.988281 26.3125 C 26.058594 26.273438 26.121094 26.226562 26.175781 26.171875 C 26.257812 26.089844 26.300781 26.007812 26.3125 25.933594 C 26.324219 25.855469 26.300781 25.789062 26.242188 25.730469 C 26.1875 25.679688 26.132812 25.65625 26.070312 25.65625 C 26.011719 25.660156 25.9375 25.691406 25.847656 25.75 L 25.746094 25.820312 C 25.617188 25.910156 25.507812 25.953125 25.414062 25.957031 C 25.324219 25.960938 25.234375 25.921875 25.152344 25.839844 C 25.058594 25.75 25.019531 25.644531 25.027344 25.523438 C 25.039062 25.402344 25.101562 25.285156 25.214844 25.167969 C 25.265625 25.117188 25.320312 25.070312 25.378906 25.027344 C 25.441406 24.984375 25.507812 24.945312 25.578125 24.910156 Z M 25.578125 24.910156 "/>
<path style=" stroke:none;fill-rule:nonzero;fill:rgb(100%,100%,100%);fill-opacity:1;" d="M 25.882812 24.761719 L 26.785156 25.496094 L 26.941406 25.304688 C 27.070312 25.144531 27.128906 25 27.117188 24.867188 C 27.105469 24.730469 27.023438 24.601562 26.867188 24.476562 C 26.710938 24.347656 26.566406 24.292969 26.433594 24.308594 C 26.300781 24.324219 26.167969 24.410156 26.039062 24.570312 Z M 25.628906 24.8125 L 25.890625 24.492188 C 26.074219 24.265625 26.253906 24.140625 26.433594 24.109375 C 26.613281 24.082031 26.800781 24.148438 27 24.308594 C 27.199219 24.472656 27.304688 24.644531 27.3125 24.828125 C 27.320312 25.007812 27.230469 25.210938 27.050781 25.433594 L 26.789062 25.757812 Z M 25.628906 24.8125 "/>
<path style=" stroke:none;fill-rule:nonzero;fill:rgb(100%,100%,100%);fill-opacity:1;" d="M 26.441406 23.746094 L 26.96875 22.964844 L 27.109375 23.058594 L 26.695312 23.675781 L 27.0625 23.921875 L 27.460938 23.332031 L 27.601562 23.425781 L 27.203125 24.015625 L 27.652344 24.320312 L 28.078125 23.6875 L 28.21875 23.78125 L 27.683594 24.582031 Z M 26.441406 23.746094 "/>
<path style=" stroke:none;fill-rule:nonzero;fill:rgb(100%,100%,100%);fill-opacity:1;" d="M 27.210938 22.523438 L 27.648438 21.683594 L 27.796875 21.761719 L 27.457031 22.421875 L 27.847656 22.625 L 28.175781 21.992188 L 28.328125 22.070312 L 28 22.703125 L 28.480469 22.953125 L 28.832031 22.277344 L 28.984375 22.355469 L 28.539062 23.210938 Z M 27.210938 22.523438 "/>
<path style=" stroke:none;fill-rule:nonzero;fill:rgb(100%,100%,100%);fill-opacity:1;" d="M 27.664062 21.628906 L 27.742188 21.441406 L 28.964844 21.957031 L 29.246094 21.289062 L 29.40625 21.355469 L 29.042969 22.210938 Z M 27.664062 21.628906 "/>
<path style=" stroke:none;fill-rule:nonzero;fill:rgb(100%,100%,100%);fill-opacity:1;" d="M 28.476562 19.777344 C 28.4375 19.917969 28.457031 20.046875 28.539062 20.160156 C 28.621094 20.273438 28.753906 20.355469 28.933594 20.40625 C 29.117188 20.457031 29.269531 20.457031 29.398438 20.402344 C 29.527344 20.347656 29.613281 20.253906 29.652344 20.109375 C 29.695312 19.96875 29.671875 19.84375 29.589844 19.730469 C 29.507812 19.617188 29.378906 19.535156 29.195312 19.484375 C 29.015625 19.433594 28.859375 19.433594 28.730469 19.488281 C 28.601562 19.539062 28.515625 19.636719 28.476562 19.777344 Z M 28.320312 19.730469 C 28.375 19.53125 28.488281 19.386719 28.660156 19.304688 C 28.828125 19.222656 29.027344 19.214844 29.253906 19.277344 C 29.480469 19.34375 29.644531 19.457031 29.746094 19.613281 C 29.847656 19.773438 29.867188 19.953125 29.8125 20.15625 C 29.753906 20.359375 29.640625 20.5 29.472656 20.582031 C 29.300781 20.667969 29.105469 20.675781 28.875 20.609375 C 28.648438 20.546875 28.484375 20.433594 28.382812 20.277344 C 28.285156 20.117188 28.261719 19.933594 28.320312 19.730469 Z M 28.320312 19.730469 "/>
<path style=" stroke:none;fill-rule:nonzero;fill:rgb(100%,100%,100%);fill-opacity:1;" d="M 29.417969 18.433594 C 29.441406 18.394531 29.480469 18.355469 29.535156 18.324219 C 29.589844 18.292969 29.660156 18.265625 29.75 18.238281 L 30.191406 18.109375 L 30.152344 18.324219 L 29.738281 18.445312 C 29.632812 18.472656 29.558594 18.507812 29.519531 18.550781 C 29.476562 18.589844 29.449219 18.648438 29.433594 18.726562 L 29.394531 18.945312 L 30.015625 19.058594 L 29.980469 19.257812 L 28.511719 18.988281 L 28.59375 18.539062 C 28.625 18.371094 28.679688 18.25 28.765625 18.179688 C 28.851562 18.113281 28.964844 18.089844 29.109375 18.117188 C 29.199219 18.132812 29.273438 18.167969 29.328125 18.222656 C 29.378906 18.277344 29.410156 18.347656 29.417969 18.433594 Z M 28.710938 18.820312 L 29.230469 18.914062 L 29.277344 18.664062 C 29.296875 18.566406 29.285156 18.492188 29.25 18.433594 C 29.214844 18.378906 29.15625 18.339844 29.070312 18.324219 C 28.984375 18.308594 28.914062 18.320312 28.863281 18.363281 C 28.808594 18.402344 28.773438 18.472656 28.757812 18.566406 Z M 28.710938 18.820312 "/>
<path style=" stroke:none;fill-rule:nonzero;fill:rgb(100%,100%,100%);fill-opacity:1;" d="M 28.691406 17.890625 L 28.71875 17.6875 L 30.203125 17.867188 L 30.179688 18.066406 Z M 28.691406 17.890625 "/>
<path style=" stroke:none;fill-rule:nonzero;fill:rgb(100%,100%,100%);fill-opacity:1;" d="M 30.078125 16.460938 L 29.675781 16.441406 L 29.660156 16.769531 L 29.492188 16.761719 L 29.519531 16.234375 L 30.160156 16.261719 C 30.210938 16.34375 30.25 16.433594 30.273438 16.527344 C 30.296875 16.621094 30.304688 16.722656 30.300781 16.832031 C 30.289062 17.0625 30.214844 17.242188 30.070312 17.371094 C 29.929688 17.496094 29.734375 17.550781 29.492188 17.539062 C 29.246094 17.527344 29.0625 17.453125 28.929688 17.316406 C 28.800781 17.175781 28.742188 16.992188 28.75 16.757812 C 28.757812 16.660156 28.773438 16.570312 28.800781 16.480469 C 28.828125 16.394531 28.867188 16.316406 28.917969 16.246094 L 29.132812 16.253906 C 29.066406 16.324219 29.015625 16.402344 28.980469 16.484375 C 28.941406 16.566406 28.921875 16.65625 28.917969 16.75 C 28.910156 16.929688 28.953125 17.070312 29.050781 17.167969 C 29.148438 17.265625 29.300781 17.316406 29.503906 17.328125 C 29.703125 17.335938 29.855469 17.296875 29.964844 17.210938 C 30.070312 17.125 30.128906 16.988281 30.136719 16.804688 C 30.140625 16.734375 30.136719 16.671875 30.128906 16.613281 C 30.117188 16.558594 30.101562 16.507812 30.078125 16.460938 Z M 30.078125 16.460938 "/>
<path style=" stroke:none;fill-rule:nonzero;fill:rgb(100%,100%,100%);fill-opacity:1;" d="M 28.808594 16.117188 L 28.765625 15.171875 L 28.9375 15.164062 L 28.96875 15.90625 L 29.410156 15.886719 L 29.378906 15.175781 L 29.550781 15.167969 L 29.582031 15.878906 L 30.121094 15.855469 L 30.089844 15.097656 L 30.257812 15.089844 L 30.300781 16.050781 Z M 28.808594 16.117188 "/>
<path style=" stroke:none;fill-rule:nonzero;fill:rgb(100%,100%,100%);fill-opacity:1;" d="M 28.734375 15.117188 L 28.699219 14.847656 L 29.847656 14.023438 L 28.609375 14.191406 L 28.582031 13.996094 L 30.0625 13.796875 L 30.101562 14.066406 L 28.949219 14.890625 L 30.191406 14.722656 L 30.214844 14.917969 Z M 28.734375 15.117188 "/>
<path style=" stroke:none;fill-rule:nonzero;fill:rgb(0%,47.058824%,43.921569%);fill-opacity:1;" d="M 6.234375 20.480469 C 6.109375 20.351562 6.003906 20.214844 5.914062 20.0625 C 5.824219 19.914062 5.75 19.75 5.691406 19.578125 C 5.5625 19.183594 5.570312 18.835938 5.714844 18.535156 C 5.859375 18.234375 6.117188 18.023438 6.496094 17.898438 C 6.875 17.773438 7.210938 17.792969 7.503906 17.957031 C 7.800781 18.117188 8.011719 18.402344 8.148438 18.808594 C 8.199219 18.964844 8.234375 19.117188 8.25 19.269531 C 8.269531 19.425781 8.269531 19.574219 8.253906 19.722656 L 7.765625 19.882812 C 7.796875 19.726562 7.808594 19.574219 7.804688 19.433594 C 7.796875 19.292969 7.773438 19.15625 7.730469 19.027344 C 7.652344 18.785156 7.523438 18.621094 7.34375 18.53125 C 7.167969 18.445312 6.953125 18.445312 6.699219 18.527344 C 6.453125 18.609375 6.28125 18.734375 6.183594 18.90625 C 6.089844 19.078125 6.082031 19.277344 6.160156 19.511719 C 6.179688 19.574219 6.203125 19.632812 6.226562 19.683594 C 6.253906 19.734375 6.28125 19.777344 6.3125 19.816406 L 6.769531 19.667969 L 6.648438 19.296875 L 7.054688 19.160156 L 7.367188 20.109375 Z M 6.234375 20.480469 "/>
<path style=" stroke:none;fill-rule:nonzero;fill:rgb(0%,47.058824%,43.921569%);fill-opacity:1;" d="M 8.59375 19.890625 L 8.910156 20.445312 L 6.753906 21.667969 L 6.4375 21.109375 Z M 8.59375 19.890625 "/>
<path style=" stroke:none;fill-rule:nonzero;fill:rgb(0%,47.058824%,43.921569%);fill-opacity:1;" d="M 8.746094 22.0625 C 8.832031 22.164062 8.914062 22.222656 8.988281 22.234375 C 9.066406 22.246094 9.148438 22.214844 9.234375 22.140625 C 9.320312 22.070312 9.363281 21.992188 9.363281 21.917969 C 9.363281 21.84375 9.316406 21.753906 9.230469 21.652344 L 9.058594 21.445312 L 8.574219 21.859375 Z M 8.238281 22.144531 L 7.523438 22.753906 L 7.109375 22.265625 L 8.996094 20.660156 L 9.628906 21.402344 C 9.839844 21.652344 9.953125 21.871094 9.96875 22.054688 C 9.984375 22.242188 9.902344 22.414062 9.71875 22.566406 C 9.597656 22.671875 9.46875 22.730469 9.335938 22.738281 C 9.203125 22.746094 9.070312 22.707031 8.925781 22.617188 C 8.96875 22.695312 8.984375 22.785156 8.976562 22.882812 C 8.96875 22.980469 8.933594 23.105469 8.871094 23.25 L 8.558594 23.972656 L 8.117188 23.453125 L 8.390625 22.824219 C 8.445312 22.695312 8.46875 22.59375 8.464844 22.515625 C 8.457031 22.441406 8.421875 22.363281 8.355469 22.28125 Z M 8.238281 22.144531 "/>
<path style=" stroke:none;fill-rule:nonzero;fill:rgb(0%,47.058824%,43.921569%);fill-opacity:1;" d="M 11.175781 23.304688 C 11.011719 23.199219 10.847656 23.175781 10.679688 23.234375 C 10.507812 23.296875 10.351562 23.433594 10.207031 23.652344 C 10.0625 23.871094 9.996094 24.066406 10.007812 24.246094 C 10.015625 24.425781 10.101562 24.570312 10.265625 24.675781 C 10.429688 24.785156 10.59375 24.808594 10.765625 24.75 C 10.933594 24.6875 11.089844 24.550781 11.234375 24.332031 C 11.378906 24.117188 11.445312 23.917969 11.433594 23.738281 C 11.425781 23.558594 11.339844 23.414062 11.175781 23.304688 Z M 11.429688 22.921875 C 11.761719 23.140625 11.960938 23.410156 12.023438 23.722656 C 12.085938 24.039062 12.003906 24.363281 11.78125 24.699219 C 11.5625 25.03125 11.292969 25.230469 10.980469 25.296875 C 10.664062 25.359375 10.339844 25.285156 10.007812 25.0625 C 9.679688 24.84375 9.480469 24.574219 9.417969 24.261719 C 9.355469 23.945312 9.4375 23.621094 9.65625 23.289062 C 9.878906 22.953125 10.148438 22.753906 10.460938 22.6875 C 10.777344 22.625 11.101562 22.699219 11.429688 22.921875 Z M 11.429688 22.921875 "/>
<path style=" stroke:none;fill-rule:nonzero;fill:rgb(0%,47.058824%,43.921569%);fill-opacity:1;" d="M 17.246094 26.527344 C 17.085938 26.605469 16.921875 26.667969 16.75 26.707031 C 16.582031 26.746094 16.402344 26.769531 16.222656 26.773438 C 15.808594 26.777344 15.480469 26.664062 15.234375 26.4375 C 14.992188 26.210938 14.867188 25.898438 14.863281 25.503906 C 14.855469 25.105469 14.976562 24.789062 15.21875 24.554688 C 15.460938 24.324219 15.796875 24.207031 16.222656 24.199219 C 16.386719 24.199219 16.546875 24.210938 16.699219 24.242188 C 16.847656 24.269531 16.992188 24.3125 17.128906 24.371094 L 17.132812 24.886719 C 16.996094 24.808594 16.855469 24.753906 16.71875 24.714844 C 16.582031 24.679688 16.445312 24.660156 16.308594 24.660156 C 16.054688 24.664062 15.859375 24.738281 15.722656 24.882812 C 15.585938 25.027344 15.519531 25.230469 15.523438 25.496094 C 15.527344 25.757812 15.59375 25.960938 15.730469 26.101562 C 15.863281 26.242188 16.054688 26.3125 16.296875 26.308594 C 16.363281 26.308594 16.425781 26.300781 16.480469 26.292969 C 16.539062 26.285156 16.589844 26.269531 16.636719 26.25 L 16.628906 25.769531 L 16.238281 25.773438 L 16.234375 25.347656 L 17.230469 25.335938 Z M 17.246094 26.527344 "/>
<path style=" stroke:none;fill-rule:nonzero;fill:rgb(0%,47.058824%,43.921569%);fill-opacity:1;" d="M 17.390625 24.109375 L 18.015625 23.976562 L 18.53125 26.402344 L 17.90625 26.535156 Z M 17.390625 24.109375 "/>
<path style=" stroke:none;fill-rule:nonzero;fill:rgb(0%,47.058824%,43.921569%);fill-opacity:1;" d="M 19.488281 24.617188 C 19.613281 24.566406 19.691406 24.507812 19.722656 24.4375 C 19.757812 24.367188 19.753906 24.28125 19.710938 24.175781 C 19.664062 24.074219 19.605469 24.011719 19.535156 23.988281 C 19.460938 23.964844 19.363281 23.980469 19.242188 24.035156 L 18.992188 24.136719 L 19.242188 24.722656 Z M 19.414062 25.128906 L 19.78125 25.992188 L 19.191406 26.242188 L 18.222656 23.960938 L 19.121094 23.582031 C 19.421875 23.453125 19.664062 23.410156 19.847656 23.453125 C 20.03125 23.492188 20.167969 23.621094 20.261719 23.839844 C 20.324219 23.992188 20.339844 24.128906 20.308594 24.257812 C 20.277344 24.386719 20.199219 24.503906 20.070312 24.613281 C 20.160156 24.597656 20.25 24.605469 20.339844 24.644531 C 20.429688 24.683594 20.539062 24.753906 20.65625 24.855469 L 21.253906 25.371094 L 20.625 25.636719 L 20.105469 25.1875 C 20.003906 25.097656 19.914062 25.042969 19.835938 25.023438 C 19.761719 25.007812 19.675781 25.019531 19.582031 25.058594 Z M 19.414062 25.128906 "/>
<path style=" stroke:none;fill-rule:nonzero;fill:rgb(0%,47.058824%,43.921569%);fill-opacity:1;" d="M 21.40625 22.667969 C 21.257812 22.792969 21.183594 22.941406 21.191406 23.121094 C 21.199219 23.300781 21.285156 23.492188 21.449219 23.695312 C 21.613281 23.898438 21.78125 24.019531 21.957031 24.066406 C 22.128906 24.109375 22.292969 24.070312 22.445312 23.945312 C 22.597656 23.824219 22.667969 23.671875 22.660156 23.492188 C 22.652344 23.3125 22.566406 23.121094 22.40625 22.921875 C 22.238281 22.71875 22.070312 22.59375 21.898438 22.550781 C 21.722656 22.507812 21.558594 22.546875 21.40625 22.667969 Z M 21.117188 22.308594 C 21.425781 22.058594 21.738281 21.949219 22.058594 21.984375 C 22.378906 22.019531 22.664062 22.195312 22.917969 22.503906 C 23.167969 22.816406 23.277344 23.132812 23.246094 23.453125 C 23.214844 23.769531 23.042969 24.054688 22.734375 24.308594 C 22.425781 24.558594 22.113281 24.664062 21.792969 24.628906 C 21.472656 24.597656 21.1875 24.421875 20.9375 24.113281 C 20.683594 23.800781 20.570312 23.484375 20.605469 23.164062 C 20.636719 22.84375 20.808594 22.558594 21.117188 22.308594 Z M 21.117188 22.308594 "/>
<path style=" stroke:none;fill-rule:nonzero;fill:rgb(0%,47.058824%,43.921569%);fill-opacity:1;" d="M 26.300781 17.828125 C 26.332031 18.003906 26.339844 18.179688 26.328125 18.351562 C 26.316406 18.527344 26.28125 18.703125 26.230469 18.878906 C 26.113281 19.273438 25.910156 19.554688 25.617188 19.71875 C 25.328125 19.886719 24.992188 19.910156 24.613281 19.796875 C 24.230469 19.683594 23.964844 19.476562 23.816406 19.175781 C 23.667969 18.875 23.652344 18.519531 23.777344 18.109375 C 23.824219 17.953125 23.882812 17.804688 23.957031 17.671875 C 24.027344 17.535156 24.113281 17.410156 24.210938 17.300781 L 24.703125 17.445312 C 24.585938 17.554688 24.492188 17.671875 24.414062 17.792969 C 24.339844 17.910156 24.28125 18.035156 24.242188 18.167969 C 24.167969 18.410156 24.183594 18.621094 24.277344 18.792969 C 24.375 18.964844 24.550781 19.089844 24.804688 19.164062 C 25.054688 19.242188 25.269531 19.234375 25.441406 19.148438 C 25.617188 19.0625 25.742188 18.902344 25.808594 18.667969 C 25.828125 18.601562 25.84375 18.542969 25.851562 18.488281 C 25.859375 18.429688 25.863281 18.375 25.859375 18.328125 L 25.398438 18.191406 L 25.285156 18.5625 L 24.875 18.441406 L 25.160156 17.488281 Z M 26.300781 17.828125 "/>
<path style=" stroke:none;fill-rule:nonzero;fill:rgb(0%,47.058824%,43.921569%);fill-opacity:1;" d="M 24.039062 16.96875 L 24.097656 16.332031 L 26.566406 16.5625 L 26.507812 17.195312 Z M 24.039062 16.96875 "/>
<path style=" stroke:none;fill-rule:nonzero;fill:rgb(0%,47.058824%,43.921569%);fill-opacity:1;" d="M 25.148438 15.132812 C 25.136719 15 25.101562 14.910156 25.046875 14.855469 C 24.992188 14.800781 24.90625 14.78125 24.792969 14.792969 C 24.683594 14.800781 24.605469 14.839844 24.5625 14.902344 C 24.519531 14.964844 24.503906 15.0625 24.515625 15.195312 L 24.539062 15.460938 L 25.171875 15.402344 Z M 25.613281 15.359375 L 26.546875 15.273438 L 26.609375 15.910156 L 24.140625 16.140625 L 24.046875 15.171875 C 24.015625 14.84375 24.050781 14.601562 24.144531 14.441406 C 24.238281 14.277344 24.402344 14.1875 24.640625 14.164062 C 24.800781 14.148438 24.941406 14.175781 25.050781 14.246094 C 25.164062 14.3125 25.253906 14.425781 25.316406 14.578125 C 25.328125 14.488281 25.367188 14.40625 25.429688 14.332031 C 25.492188 14.257812 25.59375 14.175781 25.726562 14.09375 L 26.398438 13.679688 L 26.460938 14.359375 L 25.875 14.71875 C 25.757812 14.789062 25.679688 14.859375 25.640625 14.925781 C 25.601562 14.992188 25.585938 15.078125 25.597656 15.179688 Z M 25.613281 15.359375 "/>
<path style=" stroke:none;fill-rule:nonzero;fill:rgb(0%,47.058824%,43.921569%);fill-opacity:1;" d="M 23.867188 12.734375 C 23.9375 12.917969 24.058594 13.03125 24.234375 13.078125 C 24.40625 13.125 24.613281 13.097656 24.859375 13.003906 C 25.097656 12.90625 25.265625 12.78125 25.363281 12.628906 C 25.457031 12.476562 25.46875 12.308594 25.394531 12.128906 C 25.324219 11.945312 25.199219 11.832031 25.027344 11.785156 C 24.855469 11.738281 24.644531 11.761719 24.40625 11.859375 C 24.160156 11.957031 23.992188 12.078125 23.898438 12.234375 C 23.804688 12.386719 23.792969 12.554688 23.867188 12.734375 Z M 23.433594 12.90625 C 23.289062 12.535156 23.28125 12.203125 23.410156 11.910156 C 23.539062 11.613281 23.789062 11.394531 24.160156 11.246094 C 24.535156 11.097656 24.867188 11.089844 25.164062 11.214844 C 25.457031 11.339844 25.679688 11.589844 25.824219 11.957031 C 25.972656 12.328125 25.980469 12.660156 25.851562 12.957031 C 25.722656 13.25 25.472656 13.46875 25.101562 13.617188 C 24.726562 13.765625 24.394531 13.777344 24.097656 13.648438 C 23.800781 13.523438 23.582031 13.273438 23.433594 12.90625 Z M 23.433594 12.90625 "/>
<path style=" stroke:none;fill-rule:nonzero;fill:rgb(0%,47.058824%,43.921569%);fill-opacity:1;" d="M 20.730469 6.59375 C 20.902344 6.621094 21.074219 6.664062 21.238281 6.730469 C 21.402344 6.792969 21.558594 6.878906 21.710938 6.980469 C 22.050781 7.210938 22.257812 7.492188 22.328125 7.816406 C 22.398438 8.144531 22.320312 8.46875 22.097656 8.796875 C 21.875 9.128906 21.597656 9.320312 21.265625 9.371094 C 20.933594 9.421875 20.589844 9.328125 20.234375 9.085938 C 20.097656 8.996094 19.976562 8.894531 19.871094 8.785156 C 19.761719 8.671875 19.671875 8.554688 19.59375 8.429688 L 19.882812 8.003906 C 19.953125 8.148438 20.03125 8.273438 20.125 8.382812 C 20.214844 8.492188 20.316406 8.582031 20.429688 8.660156 C 20.640625 8.804688 20.84375 8.855469 21.039062 8.816406 C 21.234375 8.773438 21.402344 8.644531 21.550781 8.425781 C 21.699219 8.210938 21.757812 8.003906 21.730469 7.8125 C 21.699219 7.617188 21.582031 7.453125 21.378906 7.316406 C 21.324219 7.277344 21.273438 7.246094 21.222656 7.222656 C 21.167969 7.199219 21.117188 7.179688 21.070312 7.167969 L 20.800781 7.566406 L 21.125 7.785156 L 20.882812 8.140625 L 20.058594 7.582031 Z M 20.730469 6.59375 "/>
<path style=" stroke:none;fill-rule:nonzero;fill:rgb(0%,47.058824%,43.921569%);fill-opacity:1;" d="M 19.214844 8.480469 L 18.628906 8.234375 L 19.589844 5.949219 L 20.179688 6.195312 Z M 19.214844 8.480469 "/>
<path style=" stroke:none;fill-rule:nonzero;fill:rgb(0%,47.058824%,43.921569%);fill-opacity:1;" d="M 17.78125 6.890625 C 17.652344 6.863281 17.550781 6.867188 17.484375 6.90625 C 17.417969 6.941406 17.371094 7.015625 17.347656 7.128906 C 17.324219 7.238281 17.335938 7.324219 17.386719 7.382812 C 17.429688 7.441406 17.519531 7.484375 17.652344 7.511719 L 17.914062 7.566406 L 18.046875 6.945312 Z M 18.136719 6.515625 L 18.328125 5.597656 L 18.953125 5.726562 L 18.445312 8.152344 L 17.488281 7.953125 C 17.167969 7.886719 16.945312 7.78125 16.820312 7.644531 C 16.695312 7.503906 16.65625 7.320312 16.703125 7.089844 C 16.738281 6.929688 16.804688 6.804688 16.902344 6.71875 C 17.003906 6.632812 17.132812 6.578125 17.300781 6.5625 C 17.21875 6.527344 17.152344 6.464844 17.101562 6.382812 C 17.046875 6.300781 17 6.179688 16.960938 6.027344 L 16.765625 5.265625 L 17.429688 5.40625 L 17.597656 6.070312 C 17.632812 6.207031 17.675781 6.300781 17.730469 6.359375 C 17.78125 6.414062 17.855469 6.457031 17.957031 6.476562 Z M 18.136719 6.515625 "/>
<path style=" stroke:none;fill-rule:nonzero;fill:rgb(0%,47.058824%,43.921569%);fill-opacity:1;" d="M 15.109375 7.40625 C 15.304688 7.394531 15.449219 7.3125 15.546875 7.160156 C 15.640625 7.007812 15.683594 6.804688 15.664062 6.542969 C 15.644531 6.285156 15.578125 6.085938 15.460938 5.949219 C 15.34375 5.8125 15.1875 5.753906 14.992188 5.765625 C 14.796875 5.78125 14.652344 5.863281 14.554688 6.015625 C 14.457031 6.164062 14.417969 6.371094 14.4375 6.628906 C 14.453125 6.890625 14.523438 7.089844 14.640625 7.226562 C 14.757812 7.359375 14.914062 7.421875 15.109375 7.40625 Z M 15.140625 7.871094 C 14.746094 7.898438 14.425781 7.808594 14.183594 7.59375 C 13.941406 7.382812 13.808594 7.078125 13.777344 6.675781 C 13.75 6.277344 13.839844 5.957031 14.050781 5.710938 C 14.257812 5.46875 14.5625 5.332031 14.960938 5.304688 C 15.355469 5.277344 15.675781 5.367188 15.917969 5.578125 C 16.160156 5.792969 16.292969 6.097656 16.324219 6.496094 C 16.351562 6.898438 16.261719 7.21875 16.050781 7.460938 C 15.839844 7.707031 15.539062 7.84375 15.140625 7.871094 Z M 15.140625 7.871094 "/>
<path style=" stroke:none;fill-rule:nonzero;fill:rgb(0%,47.058824%,43.921569%);fill-opacity:1;" d="M 8.316406 8.546875 C 8.394531 8.386719 8.488281 8.238281 8.597656 8.101562 C 8.707031 7.964844 8.832031 7.839844 8.976562 7.722656 C 9.300781 7.46875 9.625 7.355469 9.960938 7.382812 C 10.292969 7.414062 10.582031 7.585938 10.828125 7.894531 C 11.078125 8.207031 11.175781 8.527344 11.125 8.859375 C 11.078125 9.191406 10.886719 9.492188 10.550781 9.757812 C 10.421875 9.859375 10.289062 9.945312 10.152344 10.015625 C 10.011719 10.085938 9.875 10.140625 9.730469 10.175781 L 9.410156 9.773438 C 9.566406 9.75 9.710938 9.710938 9.84375 9.65625 C 9.976562 9.601562 10.09375 9.53125 10.199219 9.445312 C 10.398438 9.285156 10.507812 9.109375 10.527344 8.910156 C 10.546875 8.714844 10.476562 8.511719 10.308594 8.304688 C 10.148438 8.101562 9.96875 7.984375 9.777344 7.953125 C 9.582031 7.925781 9.390625 7.984375 9.199219 8.136719 C 9.148438 8.179688 9.101562 8.222656 9.0625 8.261719 C 9.023438 8.304688 8.992188 8.347656 8.96875 8.390625 L 9.265625 8.765625 L 9.570312 8.523438 L 9.839844 8.859375 L 9.058594 9.480469 Z M 8.316406 8.546875 "/>
<path style=" stroke:none;fill-rule:nonzero;fill:rgb(0%,47.058824%,43.921569%);fill-opacity:1;" d="M 9.6875 10.546875 L 9.273438 11.035156 L 7.382812 9.433594 L 7.796875 8.945312 Z M 9.6875 10.546875 "/>
<path style=" stroke:none;fill-rule:nonzero;fill:rgb(0%,47.058824%,43.921569%);fill-opacity:1;" d="M 7.71875 11.433594 C 7.65625 11.550781 7.628906 11.644531 7.644531 11.71875 C 7.660156 11.796875 7.714844 11.859375 7.816406 11.917969 C 7.914062 11.972656 8 11.988281 8.070312 11.960938 C 8.140625 11.933594 8.207031 11.863281 8.273438 11.746094 L 8.40625 11.511719 L 7.851562 11.199219 Z M 7.46875 10.980469 L 6.652344 10.519531 L 6.964844 9.964844 L 9.125 11.183594 L 8.644531 12.03125 C 8.484375 12.316406 8.320312 12.496094 8.148438 12.574219 C 7.980469 12.65625 7.789062 12.636719 7.585938 12.519531 C 7.441406 12.441406 7.34375 12.339844 7.292969 12.21875 C 7.238281 12.097656 7.230469 11.957031 7.265625 11.792969 C 7.203125 11.859375 7.125 11.90625 7.03125 11.929688 C 6.9375 11.957031 6.808594 11.964844 6.648438 11.957031 L 5.867188 11.914062 L 6.199219 11.320312 L 6.886719 11.359375 C 7.023438 11.367188 7.128906 11.355469 7.199219 11.324219 C 7.265625 11.292969 7.328125 11.230469 7.378906 11.140625 Z M 7.46875 10.980469 "/>
<path style=" stroke:none;fill-rule:nonzero;fill:rgb(0%,47.058824%,43.921569%);fill-opacity:1;" d="M 7.394531 14.136719 C 7.441406 13.949219 7.402344 13.785156 7.289062 13.648438 C 7.171875 13.511719 6.988281 13.410156 6.734375 13.351562 C 6.480469 13.292969 6.273438 13.296875 6.105469 13.371094 C 5.941406 13.441406 5.839844 13.574219 5.792969 13.761719 C 5.75 13.953125 5.785156 14.117188 5.898438 14.253906 C 6.015625 14.390625 6.199219 14.488281 6.453125 14.550781 C 6.707031 14.609375 6.917969 14.601562 7.082031 14.53125 C 7.246094 14.460938 7.351562 14.328125 7.394531 14.136719 Z M 7.847656 14.242188 C 7.753906 14.632812 7.574219 14.910156 7.300781 15.078125 C 7.027344 15.246094 6.695312 15.28125 6.300781 15.191406 C 5.914062 15.101562 5.632812 14.917969 5.460938 14.644531 C 5.292969 14.375 5.25 14.042969 5.34375 13.65625 C 5.433594 13.269531 5.617188 12.992188 5.890625 12.824219 C 6.164062 12.65625 6.496094 12.617188 6.886719 12.707031 C 7.277344 12.800781 7.558594 12.980469 7.726562 13.253906 C 7.898438 13.527344 7.9375 13.855469 7.847656 14.242188 Z M 7.847656 14.242188 "/>
<path style=" stroke:none;fill-rule:nonzero;fill:rgb(0%,62.352941%,60.392157%);fill-opacity:1;" d="M 17.765625 18.984375 L 17.648438 17.652344 C 17.648438 17.652344 15.199219 20.304688 15.234375 20.355469 C 15.269531 20.402344 17.707031 22.726562 17.707031 22.726562 L 17.871094 21.355469 C 17.871094 21.355469 21.265625 20.664062 21.898438 16.964844 C 21.898438 16.964844 21.121094 18.964844 17.765625 18.984375 "/>
<path style=" stroke:none;fill-rule:nonzero;fill:rgb(0%,47.058824%,43.921569%);fill-opacity:1;" d="M 21.894531 16.964844 C 22.195312 15.425781 21.570312 13.984375 21.570312 13.984375 L 18.609375 15.199219 C 18.609375 15.199219 19.738281 17.363281 19.457031 18.769531 C 21.390625 18.25 21.894531 16.964844 21.894531 16.964844 "/>
<path style=" stroke:none;fill-rule:nonzero;fill:rgb(0%,47.058824%,43.921569%);fill-opacity:1;" d="M 18.011719 19.5 C 18.277344 19.484375 18.542969 19.46875 18.808594 19.453125 C 18.84375 19.453125 18.867188 19.410156 18.859375 19.378906 C 18.851562 19.339844 18.816406 19.320312 18.78125 19.324219 C 18.519531 19.339844 18.253906 19.355469 17.988281 19.371094 C 17.953125 19.371094 17.929688 19.414062 17.933594 19.445312 C 17.941406 19.484375 17.976562 19.503906 18.011719 19.5 "/>
<path style=" stroke:none;fill-rule:nonzero;fill:rgb(0%,47.058824%,43.921569%);fill-opacity:1;" d="M 18.691406 19.710938 L 18.84375 19.726562 C 18.859375 19.726562 18.878906 19.722656 18.890625 19.710938 C 18.902344 19.699219 18.914062 19.683594 18.914062 19.664062 C 18.917969 19.628906 18.890625 19.597656 18.855469 19.59375 L 18.699219 19.582031 C 18.683594 19.578125 18.664062 19.585938 18.652344 19.597656 C 18.640625 19.605469 18.628906 19.625 18.628906 19.640625 C 18.628906 19.675781 18.652344 19.710938 18.691406 19.710938 "/>
<path style=" stroke:none;fill-rule:nonzero;fill:rgb(0%,47.058824%,43.921569%);fill-opacity:1;" d="M 17.402344 18.957031 C 17.402344 18.988281 17.40625 19.019531 17.410156 19.054688 C 17.414062 19.0625 17.417969 19.070312 17.421875 19.078125 C 17.425781 19.085938 17.433594 19.089844 17.4375 19.09375 C 17.445312 19.101562 17.453125 19.105469 17.460938 19.105469 C 17.472656 19.109375 17.480469 19.109375 17.488281 19.105469 C 17.503906 19.101562 17.519531 19.09375 17.53125 19.078125 C 17.535156 19.074219 17.535156 19.070312 17.539062 19.0625 C 17.542969 19.054688 17.542969 19.042969 17.542969 19.027344 C 17.539062 18.996094 17.535156 18.964844 17.53125 18.933594 C 17.53125 18.921875 17.527344 18.914062 17.519531 18.910156 C 17.515625 18.902344 17.511719 18.894531 17.503906 18.890625 C 17.496094 18.882812 17.488281 18.878906 17.480469 18.878906 C 17.472656 18.878906 17.460938 18.878906 17.453125 18.878906 C 17.4375 18.882812 17.421875 18.890625 17.410156 18.90625 L 17.402344 18.921875 C 17.398438 18.933594 17.398438 18.945312 17.402344 18.957031 "/>
<path style=" stroke:none;fill-rule:nonzero;fill:rgb(0%,47.058824%,43.921569%);fill-opacity:1;" d="M 17.246094 19.03125 C 17.328125 19.039062 17.339844 18.90625 17.253906 18.898438 C 17.171875 18.890625 17.160156 19.023438 17.246094 19.03125 "/>
<path style=" stroke:none;fill-rule:nonzero;fill:rgb(0%,47.058824%,43.921569%);fill-opacity:1;" d="M 15.980469 20.238281 C 16.101562 20.074219 16.222656 19.910156 16.347656 19.746094 C 16.398438 19.679688 16.289062 19.601562 16.238281 19.671875 C 16.117188 19.835938 15.996094 20 15.871094 20.164062 C 15.820312 20.230469 15.929688 20.308594 15.980469 20.238281 "/>
<path style=" stroke:none;fill-rule:nonzero;fill:rgb(0%,47.058824%,43.921569%);fill-opacity:1;" d="M 15.8125 20.082031 C 15.839844 20.0625 15.867188 20.039062 15.894531 20.015625 C 15.902344 20.007812 15.90625 20 15.910156 19.992188 C 15.914062 19.984375 15.917969 19.976562 15.917969 19.96875 C 15.917969 19.960938 15.917969 19.953125 15.914062 19.941406 C 15.914062 19.933594 15.910156 19.925781 15.902344 19.921875 C 15.890625 19.90625 15.875 19.898438 15.859375 19.898438 C 15.839844 19.898438 15.824219 19.902344 15.808594 19.914062 C 15.78125 19.9375 15.753906 19.960938 15.726562 19.984375 C 15.71875 19.988281 15.714844 19.996094 15.710938 20.003906 C 15.707031 20.011719 15.703125 20.019531 15.703125 20.027344 C 15.703125 20.035156 15.703125 20.046875 15.707031 20.054688 C 15.710938 20.0625 15.710938 20.070312 15.71875 20.074219 C 15.730469 20.089844 15.746094 20.097656 15.761719 20.097656 C 15.78125 20.101562 15.796875 20.09375 15.8125 20.082031 "/>
<path style=" stroke:none;fill-rule:nonzero;fill:rgb(0%,47.058824%,43.921569%);fill-opacity:1;" d="M 16.839844 21.367188 C 16.96875 21.546875 17.125 21.703125 17.300781 21.835938 C 17.328125 21.859375 17.371094 21.847656 17.390625 21.820312 C 17.414062 21.789062 17.40625 21.75 17.375 21.726562 C 17.210938 21.601562 17.066406 21.453125 16.941406 21.28125 C 16.921875 21.253906 16.875 21.253906 16.847656 21.273438 C 16.820312 21.296875 16.820312 21.339844 16.839844 21.367188 "/>
<path style=" stroke:none;fill-rule:nonzero;fill:rgb(0%,47.058824%,43.921569%);fill-opacity:1;" d="M 17.152344 21.355469 C 17.160156 21.363281 17.164062 21.367188 17.171875 21.375 C 17.175781 21.382812 17.183594 21.386719 17.191406 21.390625 C 17.199219 21.394531 17.207031 21.398438 17.214844 21.398438 C 17.226562 21.398438 17.234375 21.398438 17.242188 21.394531 C 17.25 21.394531 17.257812 21.390625 17.265625 21.382812 C 17.269531 21.378906 17.273438 21.375 17.273438 21.371094 C 17.28125 21.359375 17.285156 21.351562 17.289062 21.339844 C 17.289062 21.332031 17.285156 21.328125 17.285156 21.320312 C 17.285156 21.308594 17.277344 21.296875 17.273438 21.289062 C 17.265625 21.28125 17.261719 21.277344 17.253906 21.269531 C 17.25 21.261719 17.242188 21.257812 17.234375 21.253906 C 17.226562 21.25 17.21875 21.246094 17.210938 21.246094 C 17.199219 21.246094 17.191406 21.246094 17.183594 21.25 C 17.175781 21.25 17.167969 21.253906 17.160156 21.261719 C 17.15625 21.265625 17.152344 21.269531 17.148438 21.273438 C 17.144531 21.285156 17.140625 21.292969 17.136719 21.304688 C 17.136719 21.3125 17.136719 21.320312 17.136719 21.324219 C 17.140625 21.335938 17.144531 21.347656 17.152344 21.355469 "/>
<path style=" stroke:none;fill-rule:nonzero;fill:rgb(0%,47.058824%,43.921569%);fill-opacity:1;" d="M 17.714844 21.132812 C 17.796875 21.140625 17.808594 21.007812 17.722656 21 C 17.640625 20.996094 17.628906 21.125 17.714844 21.132812 "/>
<path style=" stroke:none;fill-rule:nonzero;fill:rgb(0%,47.058824%,43.921569%);fill-opacity:1;" d="M 16.386719 20.890625 C 16.402344 20.917969 16.417969 20.945312 16.4375 20.972656 C 16.441406 20.980469 16.445312 20.984375 16.453125 20.992188 C 16.457031 21 16.464844 21.003906 16.472656 21.003906 C 16.480469 21.007812 16.488281 21.007812 16.5 21.007812 C 16.507812 21.007812 16.515625 21.007812 16.523438 21.003906 C 16.539062 20.996094 16.550781 20.980469 16.558594 20.964844 C 16.558594 20.960938 16.5625 20.953125 16.5625 20.949219 C 16.5625 20.9375 16.5625 20.925781 16.554688 20.914062 C 16.539062 20.886719 16.523438 20.859375 16.503906 20.832031 C 16.5 20.824219 16.496094 20.816406 16.488281 20.8125 C 16.484375 20.804688 16.476562 20.800781 16.46875 20.800781 C 16.460938 20.796875 16.449219 20.792969 16.441406 20.796875 C 16.433594 20.796875 16.425781 20.796875 16.417969 20.800781 C 16.402344 20.808594 16.386719 20.820312 16.382812 20.839844 C 16.382812 20.84375 16.378906 20.851562 16.378906 20.855469 C 16.378906 20.867188 16.378906 20.878906 16.386719 20.890625 "/>
<path style=" stroke:none;fill-rule:nonzero;fill:rgb(0%,47.058824%,43.921569%);fill-opacity:1;" d="M 16.074219 20.78125 C 16.15625 20.789062 16.167969 20.65625 16.082031 20.648438 C 16 20.640625 15.988281 20.773438 16.074219 20.78125 "/>
<path style=" stroke:none;fill-rule:nonzero;fill:rgb(0%,62.352941%,60.392157%);fill-opacity:1;" d="M 17.492188 12.734375 L 16.453125 13.578125 C 16.453125 13.578125 20.023438 14.121094 20.042969 14.0625 C 20.0625 14.003906 20.625 10.683594 20.625 10.683594 L 19.394531 11.316406 C 19.394531 11.316406 16.921875 8.894531 13.5 10.445312 C 13.5 10.445312 15.59375 9.964844 17.492188 12.734375 "/>
<path style=" stroke:none;fill-rule:nonzero;fill:rgb(0%,47.058824%,43.921569%);fill-opacity:1;" d="M 13.496094 10.445312 C 12.054688 11.054688 11.207031 12.378906 11.207031 12.378906 L 13.875 14.148438 C 13.875 14.148438 15.03125 12.003906 16.355469 11.445312 C 14.84375 10.136719 13.496094 10.445312 13.496094 10.445312 "/>
<path style=" stroke:none;fill-rule:nonzero;fill:rgb(0%,47.058824%,43.921569%);fill-opacity:1;" d="M 17.777344 12.238281 C 17.617188 12.03125 17.457031 11.820312 17.296875 11.609375 C 17.273438 11.578125 17.222656 11.585938 17.199219 11.605469 C 17.171875 11.636719 17.179688 11.671875 17.199219 11.699219 C 17.363281 11.910156 17.523438 12.121094 17.683594 12.332031 C 17.707031 12.363281 17.753906 12.355469 17.777344 12.332031 C 17.804688 12.304688 17.800781 12.269531 17.777344 12.238281 "/>
<path style=" stroke:none;fill-rule:nonzero;fill:rgb(0%,47.058824%,43.921569%);fill-opacity:1;" d="M 17.570312 11.5625 C 17.542969 11.515625 17.519531 11.472656 17.496094 11.425781 C 17.488281 11.410156 17.472656 11.398438 17.453125 11.394531 C 17.4375 11.390625 17.417969 11.390625 17.40625 11.402344 C 17.375 11.417969 17.359375 11.457031 17.378906 11.492188 C 17.402344 11.535156 17.429688 11.582031 17.453125 11.625 C 17.460938 11.640625 17.476562 11.652344 17.492188 11.65625 C 17.507812 11.660156 17.53125 11.660156 17.542969 11.652344 C 17.574219 11.632812 17.585938 11.59375 17.570312 11.5625 "/>
<path style=" stroke:none;fill-rule:nonzero;fill:rgb(0%,47.058824%,43.921569%);fill-opacity:1;" d="M 17.675781 13.050781 C 17.699219 13.03125 17.722656 13.007812 17.75 12.988281 C 17.753906 12.980469 17.757812 12.976562 17.761719 12.96875 C 17.765625 12.960938 17.769531 12.949219 17.769531 12.941406 C 17.769531 12.933594 17.765625 12.925781 17.761719 12.917969 C 17.761719 12.910156 17.753906 12.902344 17.75 12.894531 C 17.734375 12.882812 17.71875 12.875 17.703125 12.875 L 17.6875 12.875 C 17.675781 12.878906 17.664062 12.886719 17.65625 12.894531 C 17.628906 12.914062 17.605469 12.9375 17.582031 12.957031 C 17.574219 12.964844 17.570312 12.972656 17.566406 12.980469 C 17.5625 12.988281 17.5625 12.996094 17.5625 13.003906 C 17.558594 13.011719 17.5625 13.019531 17.566406 13.027344 C 17.570312 13.039062 17.574219 13.046875 17.582031 13.050781 C 17.59375 13.0625 17.609375 13.070312 17.625 13.070312 C 17.632812 13.070312 17.636719 13.070312 17.644531 13.070312 C 17.65625 13.066406 17.664062 13.0625 17.675781 13.050781 "/>
<path style=" stroke:none;fill-rule:nonzero;fill:rgb(0%,47.058824%,43.921569%);fill-opacity:1;" d="M 17.816406 13.140625 C 17.777344 13.066406 17.660156 13.128906 17.703125 13.203125 C 17.742188 13.277344 17.859375 13.214844 17.816406 13.140625 "/>
<path style=" stroke:none;fill-rule:nonzero;fill:rgb(0%,47.058824%,43.921569%);fill-opacity:1;" d="M 19.523438 13.503906 C 19.320312 13.496094 19.117188 13.484375 18.910156 13.476562 C 18.824219 13.472656 18.824219 13.605469 18.910156 13.609375 C 19.113281 13.621094 19.316406 13.628906 19.519531 13.636719 C 19.605469 13.640625 19.609375 13.507812 19.523438 13.503906 "/>
<path style=" stroke:none;fill-rule:nonzero;fill:rgb(0%,47.058824%,43.921569%);fill-opacity:1;" d="M 19.496094 13.734375 C 19.460938 13.722656 19.425781 13.714844 19.394531 13.703125 C 19.382812 13.703125 19.375 13.699219 19.367188 13.703125 C 19.359375 13.703125 19.351562 13.703125 19.34375 13.710938 C 19.332031 13.714844 19.328125 13.71875 19.324219 13.726562 C 19.316406 13.734375 19.3125 13.742188 19.308594 13.75 C 19.308594 13.765625 19.308594 13.785156 19.316406 13.800781 C 19.328125 13.816406 19.339844 13.828125 19.355469 13.832031 C 19.390625 13.839844 19.425781 13.851562 19.460938 13.859375 C 19.46875 13.863281 19.476562 13.863281 19.484375 13.863281 C 19.496094 13.863281 19.503906 13.859375 19.511719 13.855469 C 19.519531 13.851562 19.527344 13.84375 19.53125 13.839844 C 19.535156 13.832031 19.539062 13.824219 19.542969 13.816406 C 19.546875 13.800781 19.546875 13.78125 19.535156 13.765625 C 19.527344 13.75 19.515625 13.738281 19.496094 13.734375 "/>
<path style=" stroke:none;fill-rule:nonzero;fill:rgb(0%,47.058824%,43.921569%);fill-opacity:1;" d="M 19.980469 12.164062 C 20.054688 11.957031 20.097656 11.738281 20.109375 11.519531 C 20.113281 11.484375 20.078125 11.453125 20.042969 11.453125 C 20.007812 11.453125 19.980469 11.480469 19.976562 11.515625 C 19.964844 11.726562 19.921875 11.929688 19.851562 12.125 C 19.839844 12.160156 19.863281 12.199219 19.898438 12.207031 C 19.933594 12.21875 19.964844 12.195312 19.980469 12.164062 "/>
<path style=" stroke:none;fill-rule:nonzero;fill:rgb(0%,47.058824%,43.921569%);fill-opacity:1;" d="M 19.796875 11.914062 C 19.796875 11.902344 19.800781 11.894531 19.804688 11.886719 C 19.804688 11.878906 19.808594 11.867188 19.804688 11.859375 C 19.804688 11.851562 19.804688 11.84375 19.796875 11.835938 C 19.792969 11.828125 19.789062 11.820312 19.78125 11.816406 C 19.773438 11.8125 19.765625 11.804688 19.757812 11.804688 C 19.753906 11.804688 19.746094 11.800781 19.742188 11.800781 C 19.730469 11.800781 19.71875 11.804688 19.707031 11.8125 C 19.703125 11.8125 19.699219 11.816406 19.695312 11.820312 C 19.683594 11.828125 19.679688 11.839844 19.675781 11.851562 C 19.671875 11.859375 19.671875 11.867188 19.667969 11.875 C 19.667969 11.882812 19.664062 11.894531 19.667969 11.902344 C 19.667969 11.910156 19.671875 11.917969 19.675781 11.925781 C 19.679688 11.933594 19.683594 11.941406 19.691406 11.945312 C 19.699219 11.953125 19.707031 11.957031 19.714844 11.957031 C 19.71875 11.957031 19.726562 11.960938 19.730469 11.960938 C 19.742188 11.960938 19.753906 11.957031 19.765625 11.953125 C 19.769531 11.949219 19.773438 11.945312 19.777344 11.941406 C 19.785156 11.933594 19.792969 11.921875 19.796875 11.914062 "/>
<path style=" stroke:none;fill-rule:nonzero;fill:rgb(0%,47.058824%,43.921569%);fill-opacity:1;" d="M 19.289062 11.566406 C 19.246094 11.492188 19.132812 11.554688 19.171875 11.632812 C 19.214844 11.707031 19.332031 11.640625 19.289062 11.566406 "/>
<path style=" stroke:none;fill-rule:nonzero;fill:rgb(0%,47.058824%,43.921569%);fill-opacity:1;" d="M 19.835938 12.800781 C 19.847656 12.773438 19.863281 12.742188 19.875 12.714844 C 19.878906 12.707031 19.882812 12.699219 19.882812 12.691406 C 19.882812 12.679688 19.882812 12.671875 19.882812 12.664062 C 19.878906 12.65625 19.875 12.648438 19.871094 12.640625 C 19.867188 12.632812 19.859375 12.628906 19.851562 12.625 C 19.835938 12.613281 19.816406 12.609375 19.800781 12.617188 C 19.796875 12.617188 19.789062 12.621094 19.785156 12.621094 C 19.773438 12.628906 19.765625 12.636719 19.761719 12.648438 C 19.746094 12.675781 19.734375 12.707031 19.722656 12.734375 C 19.714844 12.742188 19.714844 12.75 19.714844 12.757812 C 19.710938 12.765625 19.710938 12.773438 19.714844 12.785156 C 19.714844 12.792969 19.71875 12.800781 19.726562 12.808594 C 19.730469 12.816406 19.738281 12.820312 19.746094 12.824219 C 19.757812 12.832031 19.777344 12.835938 19.792969 12.832031 C 19.800781 12.832031 19.804688 12.828125 19.8125 12.824219 C 19.820312 12.820312 19.828125 12.8125 19.835938 12.800781 "/>
<path style=" stroke:none;fill-rule:nonzero;fill:rgb(0%,47.058824%,43.921569%);fill-opacity:1;" d="M 19.925781 13.128906 C 19.886719 13.054688 19.769531 13.117188 19.8125 13.191406 C 19.851562 13.265625 19.96875 13.203125 19.925781 13.128906 "/>
<path style=" stroke:none;fill-rule:nonzero;fill:rgb(0%,62.352941%,60.392157%);fill-opacity:1;" d="M 11.867188 16.125 L 13.117188 16.601562 C 13.117188 16.601562 11.804688 13.238281 11.746094 13.25 C 11.683594 13.261719 8.527344 14.433594 8.527344 14.433594 L 9.6875 15.183594 C 9.6875 15.183594 8.824219 18.535156 11.871094 20.726562 C 11.871094 20.726562 10.414062 19.148438 11.867188 16.125 "/>
<path style=" stroke:none;fill-rule:nonzero;fill:rgb(0%,47.058824%,43.921569%);fill-opacity:1;" d="M 11.878906 20.722656 C 13.128906 21.667969 14.699219 21.742188 14.699219 21.742188 L 14.902344 18.546875 C 14.902344 18.546875 12.464844 18.613281 11.320312 17.742188 C 10.941406 19.707031 11.878906 20.722656 11.878906 20.722656 "/>
<path style=" stroke:none;fill-rule:nonzero;fill:rgb(0%,47.058824%,43.921569%);fill-opacity:1;" d="M 11.839844 15.113281 C 11.898438 15.226562 11.96875 15.335938 12.050781 15.433594 C 12.074219 15.460938 12.117188 15.46875 12.144531 15.441406 C 12.171875 15.417969 12.175781 15.378906 12.152344 15.351562 C 12.113281 15.304688 12.078125 15.253906 12.046875 15.203125 C 12.042969 15.199219 12.042969 15.199219 12.039062 15.195312 C 12.042969 15.199219 12.042969 15.203125 12.039062 15.195312 L 12.027344 15.175781 C 12.019531 15.164062 12.011719 15.152344 12.003906 15.136719 C 11.988281 15.109375 11.972656 15.082031 11.960938 15.054688 C 11.945312 15.023438 11.90625 15.007812 11.871094 15.023438 C 11.839844 15.039062 11.824219 15.078125 11.839844 15.113281 "/>
<path style=" stroke:none;fill-rule:nonzero;fill:rgb(0%,47.058824%,43.921569%);fill-opacity:1;" d="M 12.023438 14.957031 C 12.039062 14.984375 12.054688 15.011719 12.074219 15.039062 C 12.078125 15.046875 12.082031 15.050781 12.089844 15.058594 C 12.09375 15.0625 12.101562 15.066406 12.109375 15.070312 C 12.121094 15.074219 12.128906 15.074219 12.136719 15.074219 C 12.144531 15.074219 12.152344 15.074219 12.164062 15.070312 C 12.175781 15.0625 12.191406 15.046875 12.195312 15.03125 C 12.199219 15.027344 12.199219 15.019531 12.199219 15.015625 C 12.199219 15.003906 12.199219 14.992188 12.191406 14.980469 C 12.175781 14.953125 12.160156 14.925781 12.144531 14.898438 C 12.140625 14.890625 12.132812 14.882812 12.128906 14.878906 C 12.121094 14.871094 12.113281 14.867188 12.105469 14.863281 C 12.097656 14.863281 12.089844 14.859375 12.078125 14.863281 C 12.070312 14.863281 12.0625 14.863281 12.054688 14.867188 C 12.039062 14.875 12.027344 14.886719 12.019531 14.902344 C 12.019531 14.910156 12.019531 14.914062 12.015625 14.921875 C 12.015625 14.933594 12.015625 14.945312 12.023438 14.957031 "/>
<path style=" stroke:none;fill-rule:nonzero;fill:rgb(0%,47.058824%,43.921569%);fill-opacity:1;" d="M 11.761719 14.734375 C 11.769531 14.742188 11.773438 14.75 11.78125 14.757812 C 11.785156 14.761719 11.792969 14.769531 11.800781 14.769531 C 11.808594 14.777344 11.816406 14.777344 11.824219 14.777344 C 11.835938 14.78125 11.84375 14.777344 11.851562 14.777344 C 11.859375 14.773438 11.867188 14.769531 11.875 14.765625 C 11.875 14.761719 11.882812 14.757812 11.882812 14.75 C 11.890625 14.742188 11.894531 14.730469 11.894531 14.71875 C 11.894531 14.714844 11.894531 14.707031 11.894531 14.699219 C 11.894531 14.691406 11.886719 14.679688 11.882812 14.671875 C 11.875 14.664062 11.871094 14.65625 11.863281 14.648438 C 11.859375 14.644531 11.851562 14.636719 11.84375 14.636719 C 11.835938 14.628906 11.828125 14.625 11.816406 14.625 C 11.808594 14.625 11.800781 14.625 11.792969 14.628906 C 11.785156 14.632812 11.777344 14.636719 11.769531 14.640625 C 11.765625 14.644531 11.761719 14.648438 11.757812 14.652344 C 11.75 14.664062 11.75 14.675781 11.746094 14.6875 C 11.746094 14.691406 11.746094 14.699219 11.75 14.703125 C 11.75 14.714844 11.753906 14.726562 11.761719 14.734375 "/>
<path style=" stroke:none;fill-rule:nonzero;fill:rgb(0%,47.058824%,43.921569%);fill-opacity:1;" d="M 11.230469 16.78125 C 11.160156 16.933594 11.109375 17.089844 11.074219 17.25 C 11.066406 17.285156 11.105469 17.320312 11.136719 17.324219 C 11.175781 17.324219 11.199219 17.296875 11.207031 17.261719 C 11.238281 17.113281 11.289062 16.96875 11.351562 16.828125 C 11.367188 16.796875 11.34375 16.753906 11.3125 16.742188 C 11.277344 16.730469 11.242188 16.75 11.230469 16.78125 "/>
<path style=" stroke:none;fill-rule:nonzero;fill:rgb(0%,47.058824%,43.921569%);fill-opacity:1;" d="M 10.941406 16.796875 L 10.910156 16.929688 C 10.90625 16.9375 10.90625 16.945312 10.90625 16.957031 C 10.90625 16.964844 10.910156 16.972656 10.914062 16.980469 C 10.921875 16.996094 10.933594 17.007812 10.949219 17.015625 C 10.96875 17.019531 10.984375 17.019531 11 17.011719 C 11.015625 17.003906 11.03125 16.992188 11.035156 16.976562 L 11.066406 16.84375 C 11.070312 16.835938 11.070312 16.824219 11.070312 16.816406 C 11.070312 16.808594 11.066406 16.800781 11.0625 16.792969 C 11.058594 16.777344 11.042969 16.761719 11.027344 16.757812 C 11.011719 16.753906 10.992188 16.75 10.976562 16.761719 C 10.960938 16.769531 10.945312 16.78125 10.941406 16.796875 "/>
<path style=" stroke:none;fill-rule:nonzero;fill:rgb(0%,47.058824%,43.921569%);fill-opacity:1;" d="M 10.941406 17.664062 C 10.914062 17.945312 10.929688 18.234375 10.992188 18.511719 C 11.011719 18.597656 11.140625 18.574219 11.121094 18.488281 C 11.0625 18.222656 11.046875 17.949219 11.074219 17.675781 C 11.082031 17.589844 10.953125 17.578125 10.941406 17.664062 "/>
<path style=" stroke:none;fill-rule:nonzero;fill:rgb(0%,47.058824%,43.921569%);fill-opacity:1;" d="M 10.578125 17.824219 C 10.585938 17.882812 10.597656 17.941406 10.605469 18 C 10.609375 18.03125 10.648438 18.058594 10.683594 18.050781 C 10.71875 18.042969 10.742188 18.011719 10.734375 17.972656 C 10.726562 17.914062 10.71875 17.855469 10.707031 17.800781 C 10.703125 17.765625 10.664062 17.738281 10.628906 17.746094 C 10.59375 17.753906 10.570312 17.785156 10.578125 17.824219 "/>
<path style=" stroke:none;fill-rule:nonzero;fill:rgb(0%,47.058824%,43.921569%);fill-opacity:1;" d="M 6.488281 16.019531 C 6.488281 16.160156 6.375 16.273438 6.238281 16.273438 C 6.097656 16.273438 5.984375 16.160156 5.984375 16.019531 C 5.984375 15.878906 6.097656 15.765625 6.238281 15.765625 C 6.375 15.765625 6.488281 15.878906 6.488281 16.019531 "/>
<path style=" stroke:none;fill-rule:nonzero;fill:rgb(0%,47.058824%,43.921569%);fill-opacity:1;" d="M 13.363281 6.742188 C 13.363281 6.882812 13.25 6.996094 13.113281 6.996094 C 12.972656 6.996094 12.859375 6.882812 12.859375 6.742188 C 12.859375 6.601562 12.972656 6.488281 13.113281 6.488281 C 13.25 6.488281 13.363281 6.601562 13.363281 6.742188 "/>
<path style=" stroke:none;fill-rule:nonzero;fill:rgb(0%,47.058824%,43.921569%);fill-opacity:1;" d="M 24.355469 21.808594 C 24.355469 21.949219 24.242188 22.0625 24.101562 22.0625 C 23.960938 22.0625 23.847656 21.949219 23.847656 21.808594 C 23.847656 21.667969 23.960938 21.554688 24.101562 21.554688 C 24.242188 21.554688 24.355469 21.667969 24.355469 21.808594 "/>
<path style=" stroke:none;fill-rule:nonzero;fill:rgb(0%,47.058824%,43.921569%);fill-opacity:1;" d="M 24.09375 10.179688 C 24.09375 10.320312 23.980469 10.433594 23.839844 10.433594 C 23.699219 10.433594 23.585938 10.320312 23.585938 10.179688 C 23.585938 10.039062 23.699219 9.925781 23.839844 9.925781 C 23.980469 9.925781 24.09375 10.039062 24.09375 10.179688 "/>
<path style=" stroke:none;fill-rule:nonzero;fill:rgb(0%,47.058824%,43.921569%);fill-opacity:1;" d="M 13.3125 25.265625 C 13.3125 25.40625 13.199219 25.519531 13.058594 25.519531 C 12.917969 25.519531 12.804688 25.40625 12.804688 25.265625 C 12.804688 25.125 12.917969 25.011719 13.058594 25.011719 C 13.199219 25.011719 13.3125 25.125 13.3125 25.265625 "/>
</g>
</svg>
