<svg version="1.1" id="Layer_1" xmlns="http://www.w3.org/2000/svg" xmlns:xlink="http://www.w3.org/1999/xlink" viewBox="-128 -128 768.00 768.00" xml:space="preserve" width="64px" height="64px" fill="#000000"><g id="SVGRepo_bgCarrier" stroke-width="0"></g><g id="SVGRepo_tracerCarrier" stroke-linecap="round" stroke-linejoin="round"></g><g id="SVGRepo_iconCarrier"> <path style="fill:#5F4C37;" d="M200.469,466.464v-21.657h-88.85v21.657h-1.015l30.991,38.613c3.532,4.399,8.797,6.923,14.449,6.923 c5.653,0,10.92-2.523,14.449-6.923l30.99-38.613H200.469z"></path> <path style="fill:#544431;" d="M156.043,512c5.653,0,10.92-2.523,14.449-6.923l30.99-38.613h-1.014v-21.657h-8.651l-40.193,66.652 C153.055,511.807,154.533,512,156.043,512z"></path> <path style="fill:#D8D7DA;" d="M66.638,144.937V89.406C66.638,40.107,106.745,0,156.043,0s89.406,40.107,89.406,89.406v55.531 H66.638z"></path> <path style="fill:#E0E0E3;" d="M139.662,1.53C98.163,9.25,66.638,45.705,66.638,89.406v55.531l145.173,0.079V89.114 C211.81,45.413,181.16,9.25,139.662,1.53z"></path> <polygon style="fill:#ECE5DD;" points="245.449,410.933 245.449,378.169 66.638,378.169 66.638,410.933 66.638,412.043 111.496,467.575 200.591,467.575 245.449,412.043 "></polygon> <rect x="66.638" y="144.937" style="fill:#FFB656;" width="178.811" height="267.106"></rect> <rect x="66.638" y="144.937" style="fill:#FED422;" width="44.98" height="267.106"></rect> <path style="fill:#E0E0E3;" d="M344.85,512c-18.677,0-33.874-15.196-33.874-33.874V33.874C310.976,15.196,326.173,0,344.85,0h88.85 c18.677,0,33.874,15.196,33.874,33.874v444.252c0,18.679-15.197,33.874-33.874,33.874H344.85z"></path> <path style="fill:#D8D7DA;" d="M433.701,0h-33.874c18.677,0,33.874,15.196,33.874,33.874v444.252 c0,18.679-15.197,33.874-33.874,33.874h33.874c18.677,0,33.874-15.196,33.874-33.874V33.874C467.575,15.196,452.378,0,433.701,0z"></path> <polygon style="fill:#D9CBBD;" points="211.81,412.043 178.088,467.575 200.591,467.575 245.449,412.043 245.449,410.933 245.449,398.155 "></polygon> <path style="fill:#FE5022;" d="M72.746,167.705c-15.617,0-28.321-12.704-28.321-28.321c0-15.617,12.704-28.321,28.321-28.321 h166.594c15.617,0,28.321,12.704,28.321,28.321s-12.704,28.321-28.321,28.321H72.746z"></path> <g> <path style="fill:#ACABB1;" d="M364.286,320.417c0-4.6-3.728-8.33-8.33-8.33H311.57v16.659h44.386 C360.558,328.746,364.286,325.017,364.286,320.417z"></path> <path style="fill:#ACABB1;" d="M364.286,187.141c0-4.6-3.728-8.33-8.33-8.33H311.57v16.659h44.386 C360.558,195.471,364.286,191.741,364.286,187.141z"></path> <path style="fill:#ACABB1;" d="M378.169,378.725H311.57v16.659h66.599c4.601,0,8.33-3.729,8.33-8.33 S382.771,378.725,378.169,378.725z"></path> <path style="fill:#ACABB1;" d="M378.169,112.174H311.57v16.659h66.599c4.601,0,8.33-3.729,8.33-8.33 C386.499,115.903,382.771,112.174,378.169,112.174z"></path> <path style="fill:#ACABB1;" d="M378.169,245.449H311.57v16.659h66.599c4.601,0,8.33-3.729,8.33-8.33 S382.771,245.449,378.169,245.449z"></path> </g> <polygon style="fill:#FFA733;" points="211.81,145.157 211.81,412.043 245.684,412.122 245.684,145.157 245.684,145.016 211.81,145.016 "></polygon> <path style="fill:#FF3501;" d="M239.572,111.064l-27.761-0.001v56.642l27.766,0.079c15.617,0,28.321-12.704,28.321-28.321 S255.187,111.064,239.572,111.064z"></path> </g></svg>